<svg width="172" height="30" viewBox="0 0 172 30" fill="none" xmlns="http://www.w3.org/2000/svg">
<path d="M14.8828 19.9971V23H5.28809V19.9971L7.51465 19.5283V5.65625H4.21875L4.08691 7.95605H0.205078V1.67188H20.0244V7.95605H16.0986L15.9814 5.65625H12.6562V19.5283L14.8828 19.9971ZM27.9346 23.3076C26.3037 23.3076 24.9121 22.9658 23.7598 22.2822C22.6074 21.6084 21.7236 20.666 21.1084 19.4551C20.4932 18.2344 20.1855 16.8232 20.1855 15.2217V14.9287C20.1855 13.3467 20.4932 11.9502 21.1084 10.7393C21.7139 9.52832 22.5928 8.58105 23.7451 7.89746C24.8975 7.2041 26.2842 6.85742 27.9053 6.85742C29.5361 6.85742 30.9277 7.19922 32.0801 7.88281C33.2227 8.56641 34.0967 9.51367 34.7021 10.7246C35.3174 11.9355 35.625 13.3369 35.625 14.9287V15.2217C35.625 16.7939 35.3223 18.1953 34.7168 19.4258C34.1016 20.6367 33.2178 21.5889 32.0654 22.2822C30.9229 22.9658 29.5459 23.3076 27.9346 23.3076ZM27.9346 19.3965C28.5498 19.3965 29.0527 19.2256 29.4434 18.8838C29.8145 18.542 30.083 18.0635 30.249 17.4482C30.4248 16.8232 30.5127 16.0811 30.5127 15.2217V14.9287C30.5127 14.1182 30.4297 13.3906 30.2637 12.7461C30.0879 12.1309 29.8096 11.6523 29.4287 11.3105C29.0479 10.959 28.54 10.7832 27.9053 10.7832C27.29 10.7832 26.7871 10.9541 26.3965 11.2959C26.0156 11.6475 25.7422 12.1357 25.5762 12.7607C25.4102 13.376 25.3271 14.0986 25.3271 14.9287V15.2217C25.3271 16.0713 25.4102 16.8184 25.5762 17.4629C25.7422 18.0879 26.0156 18.5664 26.3965 18.8984C26.7773 19.2305 27.29 19.3965 27.9346 19.3965ZM46.2891 26.0762V29.0938H37.4268V26.0762L39.3896 25.6074V10.6367L37.1631 10.168V7.15039H44.209L44.3848 8.9375C44.8145 8.27344 45.332 7.76074 45.9375 7.39941C46.543 7.03809 47.2852 6.85742 48.1641 6.85742C49.4238 6.85742 50.498 7.19922 51.3867 7.88281C52.2852 8.56641 52.9736 9.5332 53.4521 10.7832C53.9404 12.0234 54.1846 13.4639 54.1846 15.1045V15.4121C54.1846 17.0039 53.9453 18.3857 53.4668 19.5576C52.9883 20.7393 52.29 21.6621 51.3721 22.3262C50.4639 22.9805 49.3701 23.3076 48.0908 23.3076C47.3096 23.3076 46.6211 23.1611 46.0254 22.8682C45.4395 22.5752 44.9316 22.1455 44.502 21.5791V25.6074L46.2891 26.0762ZM46.5674 19.3965C47.4951 19.3965 48.1396 19.0498 48.501 18.3564C48.8623 17.6533 49.043 16.6719 49.043 15.4121V15.1045C49.043 14.2549 48.96 13.498 48.7939 12.834C48.6279 12.1895 48.3594 11.6914 47.9883 11.3398C47.627 10.9785 47.1436 10.7979 46.5381 10.7979C45.5908 10.7979 44.9121 11.1885 44.502 11.9697V18.4297C44.707 18.752 44.9902 18.9961 45.3516 19.1621C45.7129 19.3184 46.1182 19.3965 46.5674 19.3965ZM75.3662 19.9971V23H65.8008V19.9971L67.998 19.5283V5.1582L65.8008 4.68945V1.67188H75.8643L81.0205 15.7197H81.1084L86.1182 1.67188H96.0645V4.68945L93.8525 5.1582V19.5283L96.0645 19.9971V23H86.5137V19.9971L88.8135 19.5283V16.7451L88.9307 6.71094L88.8428 6.69629L82.8076 23H78.7646L72.6416 6.88672L72.5391 6.90137L72.8906 16.042V19.5283L75.3662 19.9971ZM104.985 23.3076C103.354 23.3076 101.963 22.9658 100.811 22.2822C99.6582 21.6084 98.7744 20.666 98.1592 19.4551C97.5439 18.2344 97.2363 16.8232 97.2363 15.2217V14.9287C97.2363 13.3467 97.5439 11.9502 98.1592 10.7393C98.7646 9.52832 99.6436 8.58105 100.796 7.89746C101.948 7.2041 103.335 6.85742 104.956 6.85742C106.587 6.85742 107.979 7.19922 109.131 7.88281C110.273 8.56641 111.147 9.51367 111.753 10.7246C112.368 11.9355 112.676 13.3369 112.676 14.9287V15.2217C112.676 16.7939 112.373 18.1953 111.768 19.4258C111.152 20.6367 110.269 21.5889 109.116 22.2822C107.974 22.9658 106.597 23.3076 104.985 23.3076ZM104.985 19.3965C105.601 19.3965 106.104 19.2256 106.494 18.8838C106.865 18.542 107.134 18.0635 107.3 17.4482C107.476 16.8232 107.563 16.0811 107.563 15.2217V14.9287C107.563 14.1182 107.48 13.3906 107.314 12.7461C107.139 12.1309 106.86 11.6523 106.479 11.3105C106.099 10.959 105.591 10.7832 104.956 10.7832C104.341 10.7832 103.838 10.9541 103.447 11.2959C103.066 11.6475 102.793 12.1357 102.627 12.7607C102.461 13.376 102.378 14.0986 102.378 14.9287V15.2217C102.378 16.0713 102.461 16.8184 102.627 17.4629C102.793 18.0879 103.066 18.5664 103.447 18.8984C103.828 19.2305 104.341 19.3965 104.985 19.3965ZM120.396 23.3076C119.155 23.3076 118.091 22.9805 117.202 22.3262C116.313 21.6719 115.63 20.7539 115.151 19.5723C114.673 18.3809 114.434 16.9941 114.434 15.4121V15.1045C114.434 13.4443 114.673 11.999 115.151 10.7686C115.63 9.53809 116.309 8.58105 117.188 7.89746C118.076 7.2041 119.126 6.85742 120.337 6.85742C121.177 6.85742 121.899 7.0332 122.505 7.38477C123.12 7.72656 123.657 8.20996 124.116 8.83496V3.63477L121.89 3.16602V0.148438H129.258V19.5283L131.104 19.9971V23H124.805L124.424 21.0371C123.945 21.7793 123.379 22.3457 122.725 22.7363C122.07 23.1172 121.294 23.3076 120.396 23.3076ZM121.992 19.3672C122.92 19.3672 123.628 19.0352 124.116 18.3711V12.0283C123.628 11.208 122.93 10.7979 122.021 10.7979C121.436 10.7979 120.962 10.9785 120.601 11.3398C120.239 11.7012 119.976 12.2041 119.81 12.8486C119.653 13.4932 119.575 14.2451 119.575 15.1045V15.4121C119.575 16.6719 119.751 17.6484 120.103 18.3418C120.454 19.0254 121.084 19.3672 121.992 19.3672ZM139.893 23.3076C138.35 23.3076 136.997 22.9707 135.835 22.2969C134.683 21.6328 133.784 20.7197 133.14 19.5576C132.495 18.3955 132.173 17.082 132.173 15.6172V15.0752C132.173 13.4541 132.456 12.0283 133.022 10.7979C133.589 9.55762 134.419 8.59082 135.513 7.89746C136.606 7.19434 137.949 6.84766 139.541 6.85742C140.967 6.85742 142.183 7.13086 143.188 7.67773C145.21 8.82031 146.221 10.9492 146.221 14.0645V16.7158H137.505L137.49 16.8184C137.559 17.3066 137.729 17.7461 138.003 18.1367C138.257 18.5273 138.613 18.835 139.072 19.0596C139.531 19.2842 140.098 19.3965 140.771 19.3965C142.061 19.3965 143.389 19.0791 144.756 18.4443L145.928 21.5498C145.215 22.0576 144.346 22.4775 143.32 22.8096C142.295 23.1416 141.152 23.3076 139.893 23.3076ZM137.446 13.4639L137.505 13.5371H141.533V13.1562C141.533 12.6094 141.479 12.1357 141.372 11.7354C141.138 10.9639 140.566 10.5781 139.658 10.5781C139.141 10.5781 138.73 10.7002 138.428 10.9443C138.125 11.1885 137.9 11.5303 137.754 11.9697C137.607 12.4092 137.505 12.9072 137.446 13.4639ZM156.621 19.9971V23H147.744V19.9971L149.619 19.5283V3.63477L147.393 3.16602V0.148438H154.761V19.5283L156.621 19.9971ZM164.648 23.3076C163.398 23.3076 162.231 23.1953 161.147 22.9707C160.073 22.7363 159.102 22.4189 158.232 22.0186L158.174 17.082H161.646L162.231 19.3818C162.437 19.5088 162.7 19.6211 163.022 19.7188C163.345 19.8066 163.73 19.8506 164.18 19.8506C165.01 19.8506 165.581 19.7383 165.894 19.5137C166.206 19.2891 166.362 19.0059 166.362 18.6641C166.362 18.3223 166.187 18.0146 165.835 17.7412C165.483 17.4775 164.722 17.2334 163.55 17.0088C161.694 16.6475 160.327 16.0322 159.448 15.1631C158.569 14.2842 158.13 13.1904 158.13 11.8818C158.13 10.9834 158.335 10.1631 158.745 9.4209C159.155 8.66895 159.824 8.06348 160.752 7.60449C161.689 7.13574 162.939 6.90137 164.502 6.90137C165.693 6.90137 166.826 7.00391 167.9 7.20898C168.984 7.41406 169.873 7.67285 170.566 7.98535L170.552 12.7607H167.095L166.655 10.71C166.196 10.3975 165.625 10.2412 164.941 10.2412C164.287 10.2412 163.809 10.3584 163.506 10.5928C163.203 10.8271 163.052 11.1299 163.052 11.501C163.052 11.7061 163.12 11.9209 163.257 12.1455C163.403 12.3896 163.701 12.6094 164.15 12.8047C164.6 13 165.132 13.166 165.747 13.3027C167.554 13.7031 168.911 14.2598 169.819 14.9727C170.737 15.6855 171.196 16.7695 171.196 18.2246C171.196 19.7871 170.635 21.0273 169.512 21.9453C168.398 22.8535 166.777 23.3076 164.648 23.3076Z" fill="#BA16F3"/>
</svg>
