<svg width="85" height="20" viewBox="0 0 85 20" fill="none" xmlns="http://www.w3.org/2000/svg">
<path d="M3.16602 14.541C3.06836 14.7363 2.95117 14.9089 2.81445 15.0586C2.67773 15.2083 2.53125 15.332 2.375 15.4297C2.21875 15.5273 2.05924 15.599 1.89648 15.6445C1.73372 15.6966 1.58073 15.7227 1.4375 15.7227C1.22917 15.7227 1.05339 15.6673 0.910156 15.5566C0.766927 15.4525 0.695312 15.2962 0.695312 15.0879C0.695312 15.0163 0.701823 14.9382 0.714844 14.8535C0.734375 14.7624 0.770182 14.6647 0.822266 14.5605C1.31706 13.5384 1.80859 12.5553 2.29688 11.6113C2.79167 10.6673 3.26693 9.78516 3.72266 8.96484C4.1849 8.14453 4.62109 7.39909 5.03125 6.72852C5.44141 6.05143 5.8125 5.47526 6.14453 5C6.48307 4.51823 6.76953 4.14714 7.00391 3.88672C7.24479 3.6263 7.42057 3.49609 7.53125 3.49609C7.75911 3.49609 7.92839 3.5612 8.03906 3.69141C8.14974 3.82161 8.20508 3.97461 8.20508 4.15039C8.20508 4.29362 8.16927 4.43685 8.09766 4.58008C7.9349 4.91211 7.74935 5.28971 7.54102 5.71289C7.33919 6.12956 7.12435 6.57552 6.89648 7.05078C6.66862 7.51953 6.43099 8.00781 6.18359 8.51562C5.9362 9.01693 5.69206 9.51823 5.45117 10.0195C5.21029 10.5143 4.97266 10.9961 4.73828 11.4648C4.51042 11.9271 4.29557 12.3568 4.09375 12.7539C3.89844 13.151 3.7194 13.5059 3.55664 13.8184C3.40039 14.1243 3.27018 14.3652 3.16602 14.541ZM14.582 3.11523C14.582 3.23242 14.5365 3.39844 14.4453 3.61328C14.3607 3.82161 14.237 4.02669 14.0742 4.22852C13.918 4.43034 13.7259 4.60612 13.498 4.75586C13.2767 4.9056 13.0293 4.98047 12.7559 4.98047C12.6908 4.98047 12.6094 4.97721 12.5117 4.9707C12.4141 4.95768 12.3164 4.93164 12.2188 4.89258C12.1276 4.85352 12.0495 4.79818 11.9844 4.72656C11.9193 4.65495 11.8867 4.56055 11.8867 4.44336C11.8867 4.38477 11.916 4.30339 11.9746 4.19922C12.0332 4.08854 12.0951 3.97135 12.1602 3.84766C12.2318 3.72396 12.2969 3.60352 12.3555 3.48633C12.4141 3.36914 12.4434 3.27148 12.4434 3.19336C12.4434 2.97201 12.2871 2.8125 11.9746 2.71484C11.6621 2.61068 11.138 2.55859 10.4023 2.55859C9.66667 2.58464 9.0026 2.63021 8.41016 2.69531C7.81771 2.75391 7.27083 2.83203 6.76953 2.92969C6.26823 3.02083 5.79948 3.12826 5.36328 3.25195C4.92708 3.37565 4.4974 3.50911 4.07422 3.65234C3.65104 3.78906 3.22135 3.9388 2.78516 4.10156C2.35547 4.25781 1.89648 4.41732 1.4082 4.58008C1.36263 4.5931 1.31706 4.60612 1.27148 4.61914C1.23242 4.63216 1.19661 4.63867 1.16406 4.63867C1.0599 4.63867 0.965495 4.61589 0.880859 4.57031C0.796224 4.52474 0.721354 4.46289 0.65625 4.38477C0.597656 4.30664 0.548828 4.21875 0.509766 4.12109C0.477214 4.02344 0.460938 3.92253 0.460938 3.81836C0.460938 3.64909 0.597656 3.46029 0.871094 3.25195C1.14453 3.03711 1.51888 2.82227 1.99414 2.60742C2.4694 2.39258 3.0293 2.18424 3.67383 1.98242C4.31836 1.77409 5.01172 1.5918 5.75391 1.43555C6.5026 1.27279 7.2806 1.14583 8.08789 1.05469C8.90169 0.957031 9.71224 0.908203 10.5195 0.908203C11.2161 0.908203 11.8184 0.963542 12.3262 1.07422C12.834 1.1849 13.2539 1.33789 13.5859 1.5332C13.918 1.72852 14.1654 1.96289 14.3281 2.23633C14.4909 2.50326 14.5755 2.79622 14.582 3.11523ZM12.375 9.61914C12.069 9.61914 11.7728 9.69727 11.4863 9.85352C11.2064 10.0033 10.9557 10.2051 10.7344 10.459C10.5195 10.7064 10.347 10.9896 10.2168 11.3086C10.0866 11.6211 10.0215 11.9434 10.0215 12.2754C10.0215 12.3991 10.0312 12.5358 10.0508 12.6855C10.0703 12.8288 10.1094 12.9655 10.168 13.0957C10.2331 13.2194 10.3242 13.3236 10.4414 13.4082C10.5586 13.4928 10.7148 13.5352 10.9102 13.5352C11.2096 13.5352 11.4993 13.457 11.7793 13.3008C12.0658 13.138 12.3197 12.9297 12.541 12.6758C12.7624 12.4154 12.9382 12.1224 13.0684 11.7969C13.1986 11.4714 13.2637 11.1426 13.2637 10.8105C13.2637 10.6803 13.2539 10.5469 13.2344 10.4102C13.2214 10.2669 13.1823 10.1367 13.1172 10.0195C13.0586 9.90234 12.9707 9.80794 12.8535 9.73633C12.7363 9.6582 12.5768 9.61914 12.375 9.61914ZM12.8828 7.90039C13.1302 7.90039 13.3939 7.93294 13.6738 7.99805C13.9603 8.06315 14.224 8.17383 14.4648 8.33008C14.7057 8.48633 14.9043 8.69466 15.0605 8.95508C15.2233 9.20898 15.3047 9.52474 15.3047 9.90234C15.3047 10.0977 15.2786 10.3223 15.2266 10.5762C15.1745 10.8236 15.0964 11.084 14.9922 11.3574C15.0573 11.4355 15.1322 11.4909 15.2168 11.5234C15.3014 11.556 15.3926 11.5723 15.4902 11.5723C15.627 11.5723 15.7767 11.5332 15.9395 11.4551C16.1087 11.377 16.2812 11.276 16.457 11.1523C16.6328 11.0286 16.8086 10.8887 16.9844 10.7324C17.1602 10.5762 17.3262 10.4199 17.4824 10.2637C17.6387 10.1074 17.7786 9.96094 17.9023 9.82422C18.0326 9.68099 18.14 9.56055 18.2246 9.46289C18.2702 9.41732 18.3255 9.39453 18.3906 9.39453C18.4818 9.39453 18.5632 9.44336 18.6348 9.54102C18.7064 9.63216 18.7422 9.76237 18.7422 9.93164C18.7422 10.1009 18.6901 10.2962 18.5859 10.5176C18.4883 10.7389 18.3027 10.9701 18.0293 11.2109C17.873 11.3802 17.694 11.5755 17.4922 11.7969C17.2904 12.0182 17.0755 12.2266 16.8477 12.4219C16.6198 12.6172 16.3822 12.7832 16.1348 12.9199C15.8874 13.0566 15.64 13.125 15.3926 13.125C15.2233 13.125 15.0573 13.099 14.8945 13.0469C14.7383 12.9948 14.5788 12.9102 14.416 12.793C14.1816 13.1576 13.9147 13.4896 13.6152 13.7891C13.3158 14.0885 12.9805 14.3457 12.6094 14.5605C12.2448 14.7754 11.8477 14.9414 11.418 15.0586C10.9948 15.1823 10.5423 15.2441 10.0605 15.2441C9.87826 15.2441 9.66667 15.2083 9.42578 15.1367C9.1849 15.0651 8.95378 14.9479 8.73242 14.7852C8.51758 14.6159 8.33529 14.3978 8.18555 14.1309C8.03581 13.8639 7.96094 13.5384 7.96094 13.1543C7.96094 12.8939 8.00326 12.5814 8.08789 12.2168C8.17253 11.8522 8.29948 11.4779 8.46875 11.0938C8.64453 10.7031 8.86263 10.319 9.12305 9.94141C9.38997 9.55729 9.70573 9.21549 10.0703 8.91602C10.4349 8.61003 10.8516 8.36589 11.3203 8.18359C11.7891 7.99479 12.3099 7.90039 12.8828 7.90039ZM27.2383 10.4102C27.3294 10.3581 27.4141 10.3158 27.4922 10.2832C27.5703 10.2507 27.6452 10.2344 27.7168 10.2344C27.86 10.2344 27.9674 10.2897 28.0391 10.4004C28.1107 10.5046 28.1465 10.6348 28.1465 10.791C28.1465 10.9603 28.1009 11.1328 28.0098 11.3086C27.9251 11.4844 27.7949 11.6309 27.6191 11.748C26.9225 12.2689 26.3008 12.7441 25.7539 13.1738C25.207 13.6035 24.6895 13.9746 24.2012 14.2871C23.7194 14.5931 23.2474 14.8307 22.7852 15C22.3229 15.1693 21.8281 15.2539 21.3008 15.2539C20.806 15.2539 20.4219 15.1628 20.1484 14.9805C19.8815 14.7982 19.748 14.5475 19.748 14.2285C19.748 14.2025 19.748 14.1797 19.748 14.1602C19.748 14.1341 19.7513 14.1048 19.7578 14.0723C19.7839 13.877 19.8848 13.6523 20.0605 13.3984C20.2363 13.1445 20.4479 12.8809 20.6953 12.6074C20.9427 12.334 21.2064 12.0573 21.4863 11.7773C21.7663 11.4974 22.0234 11.2337 22.2578 10.9863C22.4987 10.7324 22.6973 10.5013 22.8535 10.293C23.0098 10.0846 23.0879 9.91536 23.0879 9.78516C23.0879 9.70703 23.0553 9.64518 22.9902 9.59961C22.9251 9.55404 22.8177 9.53125 22.668 9.53125C22.4076 9.53125 22.1374 9.58984 21.8574 9.70703C21.584 9.81771 21.3105 9.9707 21.0371 10.166C20.7702 10.3548 20.5065 10.5729 20.2461 10.8203C19.9922 11.0677 19.7513 11.3249 19.5234 11.5918C19.3021 11.8587 19.097 12.1289 18.9082 12.4023C18.7259 12.6693 18.5697 12.9167 18.4395 13.1445C18.4004 13.2161 18.3451 13.3171 18.2734 13.4473C18.2018 13.5775 18.1237 13.724 18.0391 13.8867C17.9544 14.0495 17.8633 14.2188 17.7656 14.3945C17.6745 14.5638 17.5898 14.7266 17.5117 14.8828C17.4336 15.0326 17.362 15.166 17.2969 15.2832C17.2383 15.4069 17.196 15.4915 17.1699 15.5371C17.1374 15.5957 17.082 15.7064 17.0039 15.8691C16.9323 16.0319 16.8477 16.2207 16.75 16.4355C16.6523 16.6569 16.5482 16.888 16.4375 17.1289C16.3333 17.3698 16.2324 17.5977 16.1348 17.8125C16.0436 18.0273 15.9622 18.2161 15.8906 18.3789C15.819 18.5417 15.7734 18.6523 15.7539 18.7109C15.6888 18.8802 15.6139 19.0397 15.5293 19.1895C15.4382 19.3392 15.3372 19.4694 15.2266 19.5801C15.1094 19.6973 14.9792 19.7884 14.8359 19.8535C14.6862 19.9251 14.5202 19.9609 14.3379 19.9609C14.1035 19.9609 13.9115 19.9121 13.7617 19.8145C13.6055 19.7233 13.5273 19.5443 13.5273 19.2773C13.5273 19.1471 13.5469 19.0137 13.5859 18.877C13.625 18.7402 13.6738 18.6035 13.7324 18.4668C13.791 18.3366 13.8529 18.2064 13.918 18.0762C13.9766 17.9525 14.0319 17.832 14.084 17.7148C14.4355 17.0638 14.7936 16.4095 15.1582 15.752C15.5228 15.1009 15.8711 14.4564 16.2031 13.8184C16.5417 13.1738 16.8542 12.5423 17.1406 11.9238C17.4271 11.3053 17.6647 10.7129 17.8535 10.1465C17.9056 10.0293 17.9772 9.86328 18.0684 9.64844C18.1595 9.43359 18.2637 9.22201 18.3809 9.01367C18.498 8.80534 18.6283 8.6263 18.7715 8.47656C18.9212 8.32031 19.0807 8.24219 19.25 8.24219C19.5104 8.24219 19.6992 8.29427 19.8164 8.39844C19.9336 8.49609 19.9922 8.64258 19.9922 8.83789C19.9922 8.87695 19.9857 8.9388 19.9727 9.02344C19.9596 9.10807 19.9434 9.19922 19.9238 9.29688C19.9043 9.38802 19.8815 9.47591 19.8555 9.56055C19.8359 9.64518 19.8164 9.70703 19.7969 9.74609C20.0378 9.52474 20.2982 9.30664 20.5781 9.0918C20.8581 8.87044 21.1478 8.67188 21.4473 8.49609C21.7467 8.32031 22.0527 8.17708 22.3652 8.06641C22.6777 7.95573 22.9902 7.90039 23.3027 7.90039C23.5176 7.90039 23.7292 7.92643 23.9375 7.97852C24.1523 8.0306 24.3411 8.10872 24.5039 8.21289C24.6732 8.31055 24.8099 8.4375 24.9141 8.59375C25.0182 8.74349 25.0703 8.91927 25.0703 9.12109C25.0703 9.38802 24.9889 9.67448 24.8262 9.98047C24.6699 10.2799 24.4714 10.5827 24.2305 10.8887C23.9896 11.1947 23.7292 11.4941 23.4492 11.7871C23.1693 12.0736 22.9056 12.3372 22.6582 12.5781C22.4173 12.8125 22.2122 13.0143 22.043 13.1836C21.8802 13.3464 21.7956 13.457 21.7891 13.5156C21.7891 13.5938 21.8184 13.6589 21.877 13.7109C21.9355 13.7565 22.0332 13.7793 22.1699 13.7793C22.2806 13.7793 22.4434 13.7272 22.6582 13.623C22.873 13.5189 23.1725 13.3398 23.5566 13.0859C23.9473 12.8255 24.4388 12.4805 25.0312 12.0508C25.6302 11.6146 26.3659 11.0677 27.2383 10.4102ZM44.6504 14.3066C44.709 13.7467 44.7806 13.099 44.8652 12.3633C44.9499 11.6276 45.041 10.8594 45.1387 10.0586C45.2363 9.2513 45.334 8.44076 45.4316 7.62695C45.5358 6.81315 45.6367 6.05143 45.7344 5.3418C45.3893 6.00586 45.041 6.67318 44.6895 7.34375C44.3379 8.01432 44.0026 8.65234 43.6836 9.25781C43.3711 9.85677 43.0814 10.4004 42.8145 10.8887C42.554 11.377 42.3424 11.7708 42.1797 12.0703C42.0299 12.2721 41.8802 12.4642 41.7305 12.6465C41.5807 12.8288 41.431 12.9883 41.2812 13.125C41.138 13.2617 40.9948 13.3724 40.8516 13.457C40.7083 13.5352 40.5684 13.5742 40.4316 13.5742C40.2493 13.5742 40.1029 13.5352 39.9922 13.457C39.888 13.3789 39.8359 13.2617 39.8359 13.1055C39.8359 13.0729 39.8359 13.0436 39.8359 13.0176C39.8424 12.985 39.8522 12.9525 39.8652 12.9199C39.8262 11.9954 39.7969 11.0645 39.7773 10.127C39.7578 9.18294 39.748 8.25521 39.748 7.34375C39.748 7.12891 39.748 6.91406 39.748 6.69922C39.748 6.48438 39.7513 6.27279 39.7578 6.06445C39.4974 6.65039 39.2142 7.25911 38.9082 7.89062C38.6022 8.52214 38.2832 9.14714 37.9512 9.76562C37.6191 10.3776 37.2773 10.9701 36.9258 11.543C36.5742 12.1094 36.2227 12.627 35.8711 13.0957C35.5195 13.5579 35.1712 13.9551 34.8262 14.2871C34.4876 14.6126 34.1621 14.8405 33.8496 14.9707C33.5762 15.0814 33.3385 15.1595 33.1367 15.2051C32.9349 15.2572 32.7559 15.2832 32.5996 15.2832C32.3652 15.2832 32.1895 15.2344 32.0723 15.1367C31.9616 15.0456 31.9062 14.9316 31.9062 14.7949C31.9062 14.6322 31.9746 14.4629 32.1113 14.2871C32.248 14.1113 32.4401 13.9746 32.6875 13.877C32.987 13.7598 33.3125 13.5026 33.6641 13.1055C34.0221 12.7018 34.39 12.2135 34.7676 11.6406C35.1452 11.0677 35.526 10.4297 35.9102 9.72656C36.2943 9.02344 36.6654 8.31055 37.0234 7.58789C37.388 6.86523 37.7298 6.15885 38.0488 5.46875C38.3678 4.77214 38.651 4.14388 38.8984 3.58398C39.1458 3.02409 39.3477 2.55859 39.5039 2.1875C39.6667 1.8099 39.7676 1.57552 39.8066 1.48438C39.8978 1.28255 40.0247 1.13607 40.1875 1.04492C40.3503 0.953776 40.5163 0.908203 40.6855 0.908203C40.9199 0.908203 41.0827 0.973307 41.1738 1.10352C41.265 1.22721 41.3105 1.45182 41.3105 1.77734C41.3626 2.1875 41.4049 2.57487 41.4375 2.93945C41.4766 3.29753 41.5091 3.66862 41.5352 4.05273C41.5612 4.43034 41.5775 4.84049 41.584 5.2832C41.597 5.7194 41.6035 6.22396 41.6035 6.79688C41.6035 7.20703 41.5938 7.65951 41.5742 8.1543C41.5612 8.64909 41.5547 9.20247 41.5547 9.81445C42.3359 8.39518 43.026 7.14518 43.625 6.06445C44.2305 4.97721 44.7546 4.06901 45.1973 3.33984C45.6465 2.60417 46.0241 2.05078 46.3301 1.67969C46.6361 1.30208 46.8802 1.11328 47.0625 1.11328H47.1309C47.1504 1.11328 47.1699 1.11328 47.1895 1.11328C47.209 1.10677 47.2285 1.10352 47.248 1.10352C47.4043 1.10352 47.528 1.20117 47.6191 1.39648C47.7103 1.5918 47.7559 1.8457 47.7559 2.1582C47.7298 2.47721 47.6908 2.87435 47.6387 3.34961C47.5866 3.82487 47.5247 4.34896 47.4531 4.92188C47.388 5.48828 47.3164 6.08724 47.2383 6.71875C47.1602 7.35026 47.082 7.97852 47.0039 8.60352C46.9258 9.22201 46.8509 9.82422 46.7793 10.4102C46.7142 10.9961 46.6589 11.5267 46.6133 12.002C46.6003 12.0866 46.5938 12.1745 46.5938 12.2656C46.5938 12.3503 46.5938 12.4382 46.5938 12.5293C46.5938 12.6986 46.597 12.8711 46.6035 13.0469C46.61 13.2161 46.6133 13.3854 46.6133 13.5547C46.6133 13.75 46.6035 13.9486 46.584 14.1504C46.5645 14.3457 46.5091 14.5247 46.418 14.6875C46.3333 14.8438 46.1966 14.9707 46.0078 15.0684C45.819 15.1725 45.5586 15.2246 45.2266 15.2246C45.0508 15.2246 44.9108 15.1562 44.8066 15.0195C44.7025 14.8893 44.6504 14.6517 44.6504 14.3066ZM52.707 9.61914C52.401 9.61914 52.1048 9.69727 51.8184 9.85352C51.5384 10.0033 51.2878 10.2051 51.0664 10.459C50.8516 10.7064 50.679 10.9896 50.5488 11.3086C50.4186 11.6211 50.3535 11.9434 50.3535 12.2754C50.3535 12.3991 50.3633 12.5358 50.3828 12.6855C50.4023 12.8288 50.4414 12.9655 50.5 13.0957C50.5651 13.2194 50.6562 13.3236 50.7734 13.4082C50.8906 13.4928 51.0469 13.5352 51.2422 13.5352C51.5417 13.5352 51.8314 13.457 52.1113 13.3008C52.3978 13.138 52.6517 12.9297 52.873 12.6758C53.0944 12.4154 53.2702 12.1224 53.4004 11.7969C53.5306 11.4714 53.5957 11.1426 53.5957 10.8105C53.5957 10.6803 53.5859 10.5469 53.5664 10.4102C53.5534 10.2669 53.5143 10.1367 53.4492 10.0195C53.3906 9.90234 53.3027 9.80794 53.1855 9.73633C53.0684 9.6582 52.9089 9.61914 52.707 9.61914ZM53.2148 7.90039C53.4622 7.90039 53.7259 7.93294 54.0059 7.99805C54.2923 8.06315 54.556 8.17383 54.7969 8.33008C55.0378 8.48633 55.2363 8.69466 55.3926 8.95508C55.5553 9.20898 55.6367 9.52474 55.6367 9.90234C55.6367 10.0977 55.6107 10.3223 55.5586 10.5762C55.5065 10.8236 55.4284 11.084 55.3242 11.3574C55.3893 11.4355 55.4642 11.4909 55.5488 11.5234C55.6335 11.556 55.7246 11.5723 55.8223 11.5723C55.959 11.5723 56.1087 11.5332 56.2715 11.4551C56.4408 11.377 56.6133 11.276 56.7891 11.1523C56.9648 11.0286 57.1406 10.8887 57.3164 10.7324C57.4922 10.5762 57.6582 10.4199 57.8145 10.2637C57.9707 10.1074 58.1107 9.96094 58.2344 9.82422C58.3646 9.68099 58.472 9.56055 58.5566 9.46289C58.6022 9.41732 58.6576 9.39453 58.7227 9.39453C58.8138 9.39453 58.8952 9.44336 58.9668 9.54102C59.0384 9.63216 59.0742 9.76237 59.0742 9.93164C59.0742 10.1009 59.0221 10.2962 58.918 10.5176C58.8203 10.7389 58.6348 10.9701 58.3613 11.2109C58.2051 11.3802 58.026 11.5755 57.8242 11.7969C57.6224 12.0182 57.4076 12.2266 57.1797 12.4219C56.9518 12.6172 56.7142 12.7832 56.4668 12.9199C56.2194 13.0566 55.972 13.125 55.7246 13.125C55.5553 13.125 55.3893 13.099 55.2266 13.0469C55.0703 12.9948 54.9108 12.9102 54.748 12.793C54.5137 13.1576 54.2467 13.4896 53.9473 13.7891C53.6478 14.0885 53.3125 14.3457 52.9414 14.5605C52.5768 14.7754 52.1797 14.9414 51.75 15.0586C51.3268 15.1823 50.8743 15.2441 50.3926 15.2441C50.2103 15.2441 49.9987 15.2083 49.7578 15.1367C49.5169 15.0651 49.2858 14.9479 49.0645 14.7852C48.8496 14.6159 48.6673 14.3978 48.5176 14.1309C48.3678 13.8639 48.293 13.5384 48.293 13.1543C48.293 12.8939 48.3353 12.5814 48.4199 12.2168C48.5046 11.8522 48.6315 11.4779 48.8008 11.0938C48.9766 10.7031 49.1947 10.319 49.4551 9.94141C49.722 9.55729 50.0378 9.21549 50.4023 8.91602C50.7669 8.61003 51.1836 8.36589 51.6523 8.18359C52.1211 7.99479 52.6419 7.90039 53.2148 7.90039ZM63.1953 13.0176C63.1888 13.0306 63.1855 13.0469 63.1855 13.0664C63.1855 13.0859 63.1823 13.1022 63.1758 13.1152C63.1758 13.2324 63.2051 13.3561 63.2637 13.4863C63.3223 13.61 63.4167 13.6719 63.5469 13.6719C63.599 13.6719 63.638 13.6654 63.6641 13.6523C64.0352 13.5417 64.4095 13.3659 64.7871 13.125C65.1712 12.8841 65.5391 12.6204 65.8906 12.334C66.2422 12.0475 66.5645 11.7546 66.8574 11.4551C67.1569 11.1556 67.4043 10.8887 67.5996 10.6543C67.6908 10.5436 67.7917 10.4883 67.9023 10.4883C68 10.4883 68.0846 10.5339 68.1562 10.625C68.2344 10.7161 68.2734 10.8398 68.2734 10.9961C68.2734 11.1198 68.2376 11.2663 68.166 11.4355C68.1009 11.6048 67.9902 11.7871 67.834 11.9824C67.4499 12.4056 67.056 12.8125 66.6523 13.2031C66.2487 13.5938 65.8418 13.9421 65.4316 14.248C65.0215 14.5475 64.6113 14.7884 64.2012 14.9707C63.7975 15.153 63.4004 15.2441 63.0098 15.2441C62.5345 15.2441 62.1602 15.1107 61.8867 14.8438C61.6133 14.5703 61.4766 14.1634 61.4766 13.623C61.4766 13.5905 61.4766 13.5579 61.4766 13.5254C61.4766 13.4863 61.4798 13.4505 61.4863 13.418C61.3366 13.6914 61.1445 13.9421 60.9102 14.1699C60.6758 14.3913 60.4186 14.5833 60.1387 14.7461C59.8587 14.9023 59.569 15.0228 59.2695 15.1074C58.9701 15.1986 58.6803 15.2441 58.4004 15.2441C58.1595 15.2441 57.9382 15.2116 57.7363 15.1465C57.5345 15.0814 57.3587 14.9772 57.209 14.834C57.0658 14.6908 56.9518 14.5085 56.8672 14.2871C56.7891 14.0658 56.75 13.7988 56.75 13.4863C56.75 12.9395 56.8346 12.4219 57.0039 11.9336C57.1732 11.4388 57.3978 10.9863 57.6777 10.5762C57.9577 10.1595 58.2767 9.78841 58.6348 9.46289C58.9993 9.13086 59.3737 8.85091 59.7578 8.62305C60.1484 8.38867 60.5358 8.20964 60.9199 8.08594C61.304 7.96224 61.6556 7.90039 61.9746 7.90039C62.3457 7.90039 62.6647 7.96224 62.9316 8.08594C63.0618 8.15104 63.1823 8.23893 63.293 8.34961C63.319 8.29102 63.3451 8.23568 63.3711 8.18359C63.4362 8.02734 63.4948 7.89388 63.5469 7.7832C63.599 7.66602 63.6348 7.58138 63.6543 7.5293C63.6738 7.4707 63.7292 7.33398 63.8203 7.11914C63.9115 6.9043 64.0156 6.65365 64.1328 6.36719C64.2565 6.07422 64.3867 5.76172 64.5234 5.42969C64.6667 5.09766 64.7969 4.78516 64.9141 4.49219C65.0312 4.19922 65.1322 3.94857 65.2168 3.74023C65.3014 3.52539 65.3535 3.38867 65.373 3.33008C65.4186 3.16732 65.4805 3.01107 65.5586 2.86133C65.6367 2.70508 65.7279 2.57161 65.832 2.46094C65.9427 2.34375 66.0697 2.2526 66.2129 2.1875C66.3561 2.11589 66.5189 2.08008 66.7012 2.08008C66.9486 2.08008 67.1536 2.13542 67.3164 2.24609C67.4792 2.35026 67.5605 2.55534 67.5605 2.86133C67.5605 2.98503 67.5443 3.11198 67.5117 3.24219C67.4792 3.3724 67.4401 3.49935 67.3945 3.62305C67.3555 3.74674 67.3099 3.87044 67.2578 3.99414C67.2122 4.11133 67.1699 4.22201 67.1309 4.32617C66.8053 4.97721 66.4635 5.68685 66.1055 6.45508C65.7474 7.2168 65.3926 7.98503 65.041 8.75977C64.6895 9.53451 64.3542 10.2897 64.0352 11.0254C63.7161 11.7611 63.4362 12.4251 63.1953 13.0176ZM62.9023 9.19922C62.5117 9.21224 62.1016 9.29688 61.6719 9.45312C61.1771 9.6224 60.7246 9.8763 60.3145 10.2148C59.9043 10.5469 59.556 10.957 59.2695 11.4453C58.9896 11.9336 58.8301 12.4935 58.791 13.125C58.791 13.3854 58.9017 13.5156 59.123 13.5156C59.3965 13.5156 59.6569 13.4603 59.9043 13.3496C60.1517 13.2324 60.3861 13.0794 60.6074 12.8906C60.8353 12.6953 61.0469 12.474 61.2422 12.2266C61.4375 11.9792 61.6165 11.722 61.7793 11.4551C61.9486 11.1882 62.0983 10.9245 62.2285 10.6641C62.3652 10.3971 62.4824 10.1497 62.5801 9.92188C62.6126 9.85026 62.6582 9.74935 62.7168 9.61914C62.7689 9.49544 62.8307 9.35547 62.9023 9.19922ZM70.7344 9.23828C70.7018 9.23177 70.6725 9.22852 70.6465 9.22852C70.6204 9.22852 70.5911 9.22852 70.5586 9.22852C70.3112 9.22852 70.0801 9.27734 69.8652 9.375C69.6504 9.47266 69.4518 9.60286 69.2695 9.76562C69.0938 9.92188 68.9342 10.1009 68.791 10.3027C68.6543 10.5046 68.5306 10.7064 68.4199 10.9082C68.3092 11.1035 68.2148 11.2923 68.1367 11.4746C68.0651 11.6569 68.0098 11.8099 67.9707 11.9336C68.1986 11.8164 68.4329 11.6829 68.6738 11.5332C68.9212 11.3835 69.1523 11.2402 69.3672 11.1035C69.582 10.9668 69.7676 10.8431 69.9238 10.7324C70.0866 10.6217 70.2005 10.5469 70.2656 10.5078C70.5586 10.3255 70.7604 10.1562 70.8711 10C70.9818 9.83724 71.0371 9.69727 71.0371 9.58008C71.0371 9.48242 71.0046 9.4043 70.9395 9.3457C70.8809 9.28711 70.8125 9.2513 70.7344 9.23828ZM71.0859 7.89062C71.6263 7.89062 72.0299 8.02083 72.2969 8.28125C72.5638 8.54167 72.6973 8.90299 72.6973 9.36523C72.6973 9.63867 72.6257 9.92513 72.4824 10.2246C72.3392 10.5241 72.0918 10.8301 71.7402 11.1426C71.3887 11.4486 70.9167 11.7643 70.3242 12.0898C69.7383 12.4089 69.0026 12.7311 68.1172 13.0566C68.1497 13.2454 68.2507 13.3952 68.4199 13.5059C68.5892 13.61 68.8138 13.6621 69.0938 13.6621C69.3932 13.6621 69.7122 13.6198 70.0508 13.5352C70.3958 13.444 70.7344 13.3301 71.0664 13.1934C71.4049 13.0566 71.7337 12.9102 72.0527 12.7539C72.3717 12.5911 72.6582 12.4382 72.9121 12.2949C73.1725 12.1517 73.3874 12.028 73.5566 11.9238C73.7324 11.8197 73.8496 11.7546 73.9082 11.7285C73.9668 11.6895 74.0189 11.6667 74.0645 11.6602C74.1165 11.6536 74.1621 11.6504 74.2012 11.6504C74.2793 11.6504 74.3444 11.6699 74.3965 11.709C74.4486 11.7415 74.4909 11.7839 74.5234 11.8359C74.5625 11.8815 74.5885 11.9336 74.6016 11.9922C74.6146 12.0443 74.6211 12.0898 74.6211 12.1289C74.6211 12.1875 74.6146 12.2591 74.6016 12.3438C74.5885 12.4219 74.5397 12.513 74.4551 12.6172C74.4225 12.6497 74.3118 12.7376 74.123 12.8809C73.9408 13.0241 73.7031 13.1934 73.4102 13.3887C73.1172 13.584 72.7754 13.7923 72.3848 14.0137C72.0007 14.2285 71.5905 14.4271 71.1543 14.6094C70.7246 14.7917 70.2754 14.9414 69.8066 15.0586C69.3379 15.1823 68.8757 15.2441 68.4199 15.2441C68.0293 15.2441 67.681 15.1693 67.375 15.0195C67.0755 14.8698 66.8184 14.668 66.6035 14.4141C66.3952 14.1602 66.2357 13.8672 66.125 13.5352C66.0143 13.2031 65.959 12.8548 65.959 12.4902C65.959 12.2103 66.0143 11.9043 66.125 11.5723C66.2357 11.2337 66.3952 10.8952 66.6035 10.5566C66.8118 10.2181 67.0658 9.88932 67.3652 9.57031C67.6712 9.24479 68.013 8.95833 68.3906 8.71094C68.7682 8.46354 69.1816 8.26497 69.6309 8.11523C70.0866 7.96549 70.5716 7.89062 71.0859 7.89062ZM75.2168 12.1777C75.1452 12.3275 75.0736 12.5033 75.002 12.7051C74.9368 12.9004 74.9043 13.0762 74.9043 13.2324C74.9043 13.3301 74.9238 13.4082 74.9629 13.4668C75.002 13.5254 75.0768 13.5547 75.1875 13.5547C75.3242 13.5547 75.4935 13.5156 75.6953 13.4375C75.9036 13.3529 76.125 13.2454 76.3594 13.1152C76.6003 12.9785 76.8477 12.8255 77.1016 12.6562C77.362 12.4805 77.6191 12.3014 77.873 12.1191C78.127 11.9303 78.3678 11.7448 78.5957 11.5625C78.8301 11.3737 79.0384 11.2012 79.2207 11.0449C79.2728 10.9993 79.3346 10.9668 79.4062 10.9473C79.4779 10.9277 79.5397 10.918 79.5918 10.918C79.722 10.918 79.8294 10.9635 79.9141 11.0547C79.9987 11.1458 80.041 11.2663 80.041 11.416C80.041 11.5527 79.9954 11.7057 79.9043 11.875C79.8132 12.0443 79.6536 12.2103 79.4258 12.373C79.0091 12.7572 78.5892 13.1217 78.166 13.4668C77.7428 13.8118 77.3197 14.1178 76.8965 14.3848C76.4798 14.6452 76.0632 14.8535 75.6465 15.0098C75.2363 15.166 74.8359 15.2441 74.4453 15.2441C74.1784 15.2441 73.9538 15.2083 73.7715 15.1367C73.5957 15.0651 73.4525 14.9674 73.3418 14.8438C73.2376 14.7201 73.1628 14.5736 73.1172 14.4043C73.0716 14.235 73.0488 14.056 73.0488 13.8672C73.0488 13.5482 73.0944 13.2227 73.1855 12.8906C73.2832 12.5521 73.3971 12.2428 73.5273 11.9629C73.7552 11.4551 73.9863 10.9505 74.2207 10.4492C74.4551 9.94792 74.6699 9.48893 74.8652 9.07227L77.8242 2.77344C77.9414 2.51953 78.0977 2.34049 78.293 2.23633C78.4948 2.13216 78.6966 2.08008 78.8984 2.08008C79.1003 2.08008 79.2826 2.13542 79.4453 2.24609C79.6146 2.35677 79.6992 2.53581 79.6992 2.7832C79.6992 2.90039 79.6699 3.02409 79.6113 3.1543C79.5592 3.28451 79.4909 3.42448 79.4062 3.57422C79.2435 3.88021 79.0482 4.25456 78.8203 4.69727C78.599 5.13997 78.3581 5.62174 78.0977 6.14258C77.8438 6.66341 77.5801 7.20703 77.3066 7.77344C77.0397 8.33333 76.776 8.88021 76.5156 9.41406C76.2617 9.94792 76.0208 10.4557 75.793 10.9375C75.5716 11.4128 75.3796 11.8262 75.2168 12.1777ZM81.5352 9.50195C81.9323 9.71029 82.2871 9.94792 82.5996 10.2148C82.9121 10.4818 83.1758 10.765 83.3906 11.0645C83.612 11.3574 83.778 11.6569 83.8887 11.9629C84.0059 12.2689 84.0645 12.5684 84.0645 12.8613C84.0645 13.2324 83.957 13.5677 83.7422 13.8672C83.5339 14.1602 83.2572 14.4108 82.9121 14.6191C82.5736 14.821 82.1829 14.974 81.7402 15.0781C81.304 15.1888 80.8613 15.2441 80.4121 15.2441C80.0736 15.2441 79.7448 15.2051 79.4258 15.127C79.1068 15.0553 78.8138 14.9414 78.5469 14.7852C78.2865 14.6289 78.0618 14.4303 77.873 14.1895C77.6842 13.9421 77.5508 13.6491 77.4727 13.3105C77.4596 13.2585 77.4531 13.2161 77.4531 13.1836C77.4531 13.0078 77.515 12.8581 77.6387 12.7344C77.7624 12.6042 77.8991 12.5391 78.0488 12.5391C78.1204 12.5391 78.1986 12.5521 78.2832 12.5781C78.3743 12.6042 78.4427 12.6628 78.4883 12.7539C78.5729 12.9102 78.6901 13.0501 78.8398 13.1738C78.9961 13.2975 79.1686 13.4049 79.3574 13.4961C79.5462 13.5807 79.7448 13.6491 79.9531 13.7012C80.168 13.7467 80.3763 13.7695 80.5781 13.7695C80.7865 13.7695 80.985 13.75 81.1738 13.7109C81.3691 13.6719 81.5384 13.61 81.6816 13.5254C81.8314 13.4408 81.9486 13.3333 82.0332 13.2031C82.1178 13.0729 82.1602 12.9134 82.1602 12.7246C82.1602 12.3926 82.0853 12.0866 81.9355 11.8066C81.7858 11.5267 81.5905 11.2695 81.3496 11.0352C81.1152 10.7943 80.8451 10.5729 80.5391 10.3711C80.2396 10.1628 79.9401 9.96419 79.6406 9.77539C79.6081 9.75586 79.5592 9.70052 79.4941 9.60938C79.429 9.51172 79.3965 9.41406 79.3965 9.31641C79.3965 9.23828 79.416 9.17643 79.4551 9.13086C79.5592 8.99414 79.6797 8.85417 79.8164 8.71094C79.9531 8.56771 80.0996 8.4375 80.2559 8.32031C80.4121 8.19661 80.5814 8.09896 80.7637 8.02734C80.946 7.94922 81.1348 7.91016 81.3301 7.91016C81.4733 7.91016 81.6068 7.92969 81.7305 7.96875C81.8542 8.00781 81.9583 8.0599 82.043 8.125C82.1276 8.18359 82.1927 8.25195 82.2383 8.33008C82.2904 8.40169 82.3164 8.47005 82.3164 8.53516C82.3164 8.6263 82.2936 8.71419 82.248 8.79883C82.2025 8.88346 82.1406 8.96484 82.0625 9.04297C81.9909 9.12109 81.9062 9.19922 81.8086 9.27734C81.7174 9.35547 81.6263 9.43034 81.5352 9.50195Z" fill="black"/>
</svg>
