<svg width="127" height="46" viewBox="0 0 127 46" fill="none" xmlns="http://www.w3.org/2000/svg">
<path d="M23.6133 5.39844C23.5872 5.54167 23.5286 5.65885 23.4375 5.75C23.3594 5.84115 23.2747 5.93229 23.1836 6.02344C23.0924 6.11458 23.0013 6.20573 22.9102 6.29688C22.832 6.38802 22.7865 6.50521 22.7734 6.64844C22.7344 6.94792 22.5781 7.19531 22.3047 7.39062C22.0312 7.57292 21.7122 7.66406 21.3477 7.66406C21.0352 7.66406 20.5143 7.64453 19.7852 7.60547C19.056 7.56641 18.2227 7.54688 17.2852 7.54688C16.2435 7.54688 15.1758 7.58594 14.082 7.66406C12.9883 7.72917 11.9206 7.84635 10.8789 8.01562C9.83724 8.1849 8.85417 8.40625 7.92969 8.67969C7.00521 8.95312 6.19792 9.29167 5.50781 9.69531C4.81771 10.099 4.27083 10.5742 3.86719 11.1211C3.46354 11.6549 3.26172 12.2734 3.26172 12.9766C3.26172 13.6146 3.3724 14.2396 3.59375 14.8516C3.82812 15.4505 4.09505 16.0039 4.39453 16.5117C4.70703 17.0065 5.01953 17.4427 5.33203 17.8203C5.65755 18.1979 5.91146 18.4714 6.09375 18.6406C6.22396 18.7578 6.28906 18.8815 6.28906 19.0117C6.28906 19.2721 5.95703 19.4023 5.29297 19.4023C5.1237 19.4023 4.88281 19.3698 4.57031 19.3047C4.27083 19.2396 3.94531 19.1289 3.59375 18.9727C3.24219 18.8164 2.8776 18.6016 2.5 18.3281C2.13542 18.0547 1.80339 17.7096 1.50391 17.293C1.20443 16.8763 0.957031 16.3815 0.761719 15.8086C0.579427 15.2357 0.488281 14.5586 0.488281 13.7773C0.488281 12.6576 0.768229 11.5768 1.32812 10.5352C1.90104 9.48047 2.66927 8.53646 3.63281 7.70312C4.60938 6.85677 5.7487 6.15365 7.05078 5.59375C8.35286 5.02083 9.73958 4.64323 11.2109 4.46094C11.901 4.34375 12.6042 4.24609 13.3203 4.16797C14.0495 4.08984 14.7656 4.02474 15.4688 3.97266C16.1719 3.92057 16.849 3.88151 17.5 3.85547C18.1641 3.82943 18.776 3.81641 19.3359 3.81641C20.3776 3.81641 21.1979 3.85547 21.7969 3.93359C22.3958 3.9987 22.8385 4.08333 23.125 4.1875C23.4245 4.29167 23.6068 4.40885 23.6719 4.53906C23.75 4.65625 23.7891 4.76693 23.7891 4.87109C23.7891 4.94922 23.763 5.02734 23.7109 5.10547C23.6719 5.18359 23.6393 5.28125 23.6133 5.39844ZM15 8.79688C15 8.88802 14.987 9.26562 14.9609 9.92969C14.9349 10.5938 14.8958 11.4401 14.8438 12.4688C14.8047 13.4974 14.7526 14.6628 14.6875 15.9648C14.6354 17.2669 14.5768 18.6081 14.5117 19.9883C14.4596 21.3555 14.401 22.7096 14.3359 24.0508C14.2839 25.3919 14.2318 26.6224 14.1797 27.7422C14.1406 28.862 14.1081 29.819 14.082 30.6133C14.056 31.3945 14.043 31.9154 14.043 32.1758C14.043 32.319 14.0234 32.4622 13.9844 32.6055C13.9583 32.7617 13.8997 32.9049 13.8086 33.0352C13.7174 33.1784 13.5872 33.3021 13.418 33.4062C13.2617 33.5104 13.0469 33.5885 12.7734 33.6406C12.5391 33.6797 12.3242 33.7448 12.1289 33.8359C11.9466 33.9401 11.7773 34.0443 11.6211 34.1484C11.4779 34.2526 11.3477 34.3438 11.2305 34.4219C11.1133 34.5 11.0026 34.5391 10.8984 34.5391C10.8333 34.5391 10.7878 34.5065 10.7617 34.4414C10.7357 34.3893 10.7161 34.3177 10.7031 34.2266C10.6901 34.1484 10.6836 34.0638 10.6836 33.9727C10.6836 33.8945 10.6836 33.8229 10.6836 33.7578C10.6966 32.9505 10.7357 31.5964 10.8008 29.6953C10.8268 28.888 10.8594 27.9245 10.8984 26.8047C10.9505 25.6719 11.0091 24.3503 11.0742 22.8398C11.1523 21.3164 11.237 19.5911 11.3281 17.6641C11.4193 15.724 11.5234 13.543 11.6406 11.1211C11.6667 10.5352 11.7708 10.0469 11.9531 9.65625C12.1354 9.26562 12.4609 9.01823 12.9297 8.91406C13.1641 8.86198 13.3724 8.77734 13.5547 8.66016C13.75 8.52995 13.9258 8.39974 14.082 8.26953C14.2383 8.13932 14.375 8.02214 14.4922 7.91797C14.6094 7.8138 14.707 7.76172 14.7852 7.76172C14.9023 7.76172 14.9674 7.86589 14.9805 8.07422C14.9935 8.26953 15 8.51042 15 8.79688ZM22.4414 30.6133C22.7539 30.6133 23.0273 30.5091 23.2617 30.3008C23.4961 30.0924 23.6914 29.819 23.8477 29.4805C24.0169 29.1419 24.1536 28.7513 24.2578 28.3086C24.362 27.8529 24.4401 27.3841 24.4922 26.9023C24.1146 26.6419 23.7435 26.3034 23.3789 25.8867C23.0273 25.4701 22.7083 24.9622 22.4219 24.3633C22.2526 24.0117 22.1289 23.6536 22.0508 23.2891C21.9727 22.9115 21.9336 22.5534 21.9336 22.2148C21.9336 21.7852 21.9922 21.3815 22.1094 21.0039C22.2266 20.6263 22.3958 20.3008 22.6172 20.0273C22.8516 19.7539 23.138 19.5391 23.4766 19.3828C23.8151 19.2135 24.2057 19.1289 24.6484 19.1289C25.2083 19.1289 25.6641 19.2656 26.0156 19.5391C26.3802 19.7995 26.6667 20.138 26.875 20.5547C27.0833 20.9583 27.2266 21.401 27.3047 21.8828C27.3958 22.3646 27.4414 22.8138 27.4414 23.2305C27.4414 23.7773 27.4023 24.3372 27.3242 24.9102C27.2591 25.4831 27.1484 26.0625 26.9922 26.6484C27.474 26.6094 27.9036 26.4792 28.2812 26.2578C28.6589 26.0234 28.9779 25.6328 29.2383 25.0859C29.3945 24.7604 29.5573 24.5977 29.7266 24.5977C29.8177 24.5977 29.8958 24.6237 29.9609 24.6758C30.0391 24.7279 30.0781 24.8125 30.0781 24.9297C30.0781 25.0208 30.0586 25.112 30.0195 25.2031C29.7591 25.9453 29.3229 26.5312 28.7109 26.9609C28.112 27.3906 27.4414 27.6055 26.6992 27.6055C26.4779 28.2435 26.2044 28.849 25.8789 29.4219C25.5664 29.9818 25.1953 30.4766 24.7656 30.9062C24.3359 31.3359 23.8477 31.6745 23.3008 31.9219C22.7539 32.1693 22.1484 32.293 21.4844 32.293C21.1328 32.293 20.7357 32.2409 20.293 32.1367C19.8503 32.0326 19.4336 31.8177 19.043 31.4922C18.6523 31.1536 18.3268 30.6849 18.0664 30.0859C17.793 29.474 17.6562 28.6667 17.6562 27.6641C17.6562 26.8438 17.8125 25.9779 18.125 25.0664C18.4245 24.1549 18.9323 23.25 19.6484 22.3516C19.9219 22.013 20.1693 21.7721 20.3906 21.6289C20.625 21.4857 20.8138 21.4141 20.957 21.4141C21.2435 21.4141 21.3867 21.5898 21.3867 21.9414C21.3867 22.0977 21.3346 22.293 21.2305 22.5273C21.1263 22.7617 21.0156 23.0612 20.8984 23.4258C20.7812 23.7904 20.6706 24.2266 20.5664 24.7344C20.4622 25.2292 20.4102 25.8151 20.4102 26.4922C20.4102 27.7943 20.5924 28.8099 20.957 29.5391C21.3346 30.2552 21.8294 30.6133 22.4414 30.6133ZM24.6094 24.8711C24.6094 23.543 24.4857 22.5924 24.2383 22.0195C23.9909 21.4336 23.7174 21.1992 23.418 21.3164C23.2878 21.3685 23.2096 21.4857 23.1836 21.668C23.1706 21.8503 23.1641 22.026 23.1641 22.1953C23.1641 22.4818 23.2031 22.7812 23.2812 23.0938C23.3594 23.4062 23.457 23.7188 23.5742 24.0312C23.7044 24.3438 23.8542 24.6432 24.0234 24.9297C24.2057 25.2031 24.3945 25.457 24.5898 25.6914C24.6029 25.5482 24.6094 25.4115 24.6094 25.2812C24.6094 25.151 24.6094 25.0143 24.6094 24.8711ZM32.6562 17.7227C32.7604 17.7227 32.8841 17.7617 33.0273 17.8398C33.1315 17.9049 33.1836 18.0352 33.1836 18.2305C33.1836 18.4258 33.1445 18.6536 33.0664 18.9141C32.9883 19.1615 32.9362 19.3763 32.9102 19.5586C32.819 19.9753 32.7344 20.4375 32.6562 20.9453C32.5781 21.4531 32.5065 21.987 32.4414 22.5469C33.0273 21.5573 33.6328 20.8672 34.2578 20.4766C34.8958 20.0729 35.4622 19.8711 35.957 19.8711C36.4648 19.8711 36.9076 19.9688 37.2852 20.1641C37.6758 20.3594 37.9948 20.6328 38.2422 20.9844C38.4896 21.3229 38.6719 21.7331 38.7891 22.2148C38.9193 22.6966 38.9844 23.2305 38.9844 23.8164C38.9844 25.2227 38.8021 26.4206 38.4375 27.4102C38.0729 28.3997 37.6302 29.2201 37.1094 29.8711C37.7214 29.6758 38.3464 29.2982 38.9844 28.7383C39.2578 28.4909 39.5898 28.0807 39.9805 27.5078C40.3711 26.9349 40.7747 26.1276 41.1914 25.0859C41.3346 24.7604 41.5169 24.5977 41.7383 24.5977C41.9206 24.5977 42.0117 24.7018 42.0117 24.9102C42.0117 24.9883 41.9922 25.0859 41.9531 25.2031C41.5885 26.2188 41.1979 27.0651 40.7812 27.7422C40.3646 28.4193 39.9414 28.9661 39.5117 29.3828C39.0951 29.7995 38.6784 30.1055 38.2617 30.3008C37.8581 30.4961 37.487 30.6328 37.1484 30.7109L36.1523 30.8867C35.5534 31.3945 34.9805 31.7526 34.4336 31.9609C33.8867 32.1693 33.4961 32.2734 33.2617 32.2734C33.0664 32.2734 32.8971 32.2474 32.7539 32.1953C32.6237 32.1432 32.513 32.026 32.4219 31.8438C32.3568 31.7005 32.2852 31.5247 32.207 31.3164C32.1419 31.0951 32.1094 30.9062 32.1094 30.75C32.1094 30.4115 32.2526 30.1836 32.5391 30.0664C32.8385 29.9492 33.2161 29.8906 33.6719 29.8906C33.8281 29.8906 33.9844 29.8971 34.1406 29.9102C34.3099 29.9232 34.4857 29.9427 34.668 29.9688C34.8633 29.6562 35.0456 29.2786 35.2148 28.8359C35.3971 28.3802 35.5469 27.8919 35.6641 27.3711C35.7943 26.8372 35.8919 26.2773 35.957 25.6914C36.0352 25.0924 36.0742 24.487 36.0742 23.875C36.0742 22.5599 35.7552 21.9023 35.1172 21.9023C34.7786 21.9023 34.4661 22.026 34.1797 22.2734C33.9062 22.5208 33.6523 22.8398 33.418 23.2305C33.1836 23.6211 32.9753 24.0573 32.793 24.5391C32.6237 25.0208 32.474 25.5026 32.3438 25.9844C32.2135 26.4661 32.1094 26.9219 32.0312 27.3516C31.9661 27.7812 31.9271 28.1328 31.9141 28.4062L31.875 28.4453C31.862 28.6276 31.849 28.7969 31.8359 28.9531C31.8359 29.1094 31.8359 29.2591 31.8359 29.4023C31.8229 29.4023 31.8034 29.9688 31.7773 31.1016C31.7513 32.2344 31.6667 33.9727 31.5234 36.3164C31.4583 37.4492 31.3932 38.4193 31.3281 39.2266C31.276 40.0339 31.224 40.7109 31.1719 41.2578C31.1328 41.8177 31.0872 42.2734 31.0352 42.625C30.9831 42.9766 30.931 43.263 30.8789 43.4844C30.8268 43.6797 30.7292 43.8294 30.5859 43.9336C30.4557 44.0508 30.306 44.1419 30.1367 44.207C29.9805 44.2721 29.8307 44.3242 29.6875 44.3633C29.5443 44.4023 29.4336 44.4544 29.3555 44.5195C29.0039 44.819 28.724 45.0339 28.5156 45.1641C28.2943 45.2943 28.125 45.3594 28.0078 45.3594C27.9036 45.3594 27.8125 45.3073 27.7344 45.2031C27.6562 45.112 27.6172 44.9753 27.6172 44.793C27.6172 44.6888 27.6367 44.5456 27.6758 44.3633C27.7148 44.1549 27.7734 43.7383 27.8516 43.1133C27.8906 42.8398 27.9362 42.5078 27.9883 42.1172C28.0273 41.7396 28.0794 41.2773 28.1445 40.7305C28.2096 40.1966 28.2812 39.5716 28.3594 38.8555C28.4375 38.1523 28.5286 37.3451 28.6328 36.4336C28.6458 36.2904 28.6719 35.9518 28.7109 35.418C28.75 34.8971 28.8021 34.2526 28.8672 33.4844C28.9193 32.7161 28.9844 31.8698 29.0625 30.9453C29.1276 30.0078 29.1992 29.0573 29.2773 28.0938C29.3555 27.1302 29.4336 26.1927 29.5117 25.2812C29.5898 24.3568 29.668 23.5299 29.7461 22.8008C29.8242 22.0586 29.8958 21.4466 29.9609 20.9648C30.0391 20.4831 30.1042 20.2031 30.1562 20.125C30.2995 19.8646 30.4688 19.6107 30.6641 19.3633C30.8724 19.1159 31.1263 18.875 31.4258 18.6406C31.5169 18.5625 31.6146 18.4714 31.7188 18.3672C31.8229 18.263 31.9271 18.1654 32.0312 18.0742C32.1484 17.9701 32.2526 17.8854 32.3438 17.8203C32.4479 17.7552 32.5521 17.7227 32.6562 17.7227ZM71.6602 9.40234C72.3763 9.40234 72.9622 9.51953 73.418 9.75391C73.8867 9.97526 74.2578 10.3008 74.5312 10.7305C74.8047 11.1471 74.9935 11.6484 75.0977 12.2344C75.2018 12.8203 75.2539 13.4648 75.2539 14.168C75.2539 14.7539 75.2214 15.3789 75.1562 16.043C75.1042 16.694 75.0456 17.3711 74.9805 18.0742C74.8112 19.6888 74.668 21.2773 74.5508 22.8398C74.4466 24.4023 74.3945 25.9323 74.3945 27.4297C74.3945 29.1094 74.4727 30.6263 74.6289 31.9805C74.7982 33.3216 75.0651 34.5391 75.4297 35.6328C75.8073 36.7266 76.3021 37.7031 76.9141 38.5625C77.526 39.4349 78.2812 40.2227 79.1797 40.9258C79.3229 41.043 79.4336 41.1341 79.5117 41.1992C79.5898 41.2773 79.6289 41.3685 79.6289 41.4727C79.6289 41.6419 79.5117 41.7266 79.2773 41.7266C79.1471 41.7266 79.0039 41.7005 78.8477 41.6484C77.9492 41.3099 77.0182 40.8151 76.0547 40.1641C75.0911 39.513 74.2122 38.6667 73.418 37.625C72.6237 36.5833 71.9661 35.3138 71.4453 33.8164C70.9375 32.332 70.6836 30.5742 70.6836 28.543C70.6836 27.1628 70.7292 25.7956 70.8203 24.4414C70.9115 23.0872 71.0091 21.8112 71.1133 20.6133C71.2305 19.4023 71.3346 18.2956 71.4258 17.293C71.5169 16.2773 71.5625 15.4115 71.5625 14.6953C71.5625 14.3047 71.5299 13.9987 71.4648 13.7773C71.3997 13.556 71.3151 13.3932 71.2109 13.2891C71.1198 13.1719 71.0091 13.1003 70.8789 13.0742C70.7487 13.0482 70.625 13.0352 70.5078 13.0352C70.3516 13.0352 70.1953 13.0872 70.0391 13.1914C69.8828 13.2956 69.7266 13.4909 69.5703 13.7773C69.4141 14.0638 69.2578 14.4544 69.1016 14.9492C68.9583 15.431 68.8216 16.0625 68.6914 16.8438C68.6003 17.3255 68.4961 17.9049 68.3789 18.582C68.2747 19.2591 68.151 19.9818 68.0078 20.75C67.8776 21.5182 67.7409 22.306 67.5977 23.1133C67.4674 23.9076 67.3372 24.6628 67.207 25.3789C67.0898 26.0951 66.9727 26.7461 66.8555 27.332C66.7513 27.9049 66.6602 28.3542 66.582 28.6797C66.2565 30.0599 65.8333 31.069 65.3125 31.707C64.8047 32.3451 64.1602 32.6641 63.3789 32.6641C62.806 32.6641 62.3503 32.5339 62.0117 32.2734C61.6862 32.013 61.4388 31.6875 61.2695 31.2969C61.1003 30.9062 60.9961 30.4831 60.957 30.0273C60.918 29.5586 60.8984 29.1224 60.8984 28.7188C60.8984 26.1016 60.931 23.5365 60.9961 21.0234C61.0612 18.5104 61.0938 15.9909 61.0938 13.4648C61.0938 12.5273 61.0677 11.6875 61.0156 10.9453C60.9635 10.2031 60.8529 9.57812 60.6836 9.07031C60.5143 8.54948 60.2799 8.15234 59.9805 7.87891C59.681 7.59245 59.2904 7.44922 58.8086 7.44922C58.3529 7.44922 57.9557 7.71615 57.6172 8.25C57.2917 8.77083 57.0182 9.48698 56.7969 10.3984C56.5755 11.3099 56.4062 12.3841 56.2891 13.6211C56.1719 14.8581 56.0938 16.1862 56.0547 17.6055C56.0286 18.582 56.0026 19.5781 55.9766 20.5938C55.9635 21.6094 55.9375 22.599 55.8984 23.5625C55.8594 24.513 55.8073 25.418 55.7422 26.2773C55.6771 27.1237 55.599 27.8854 55.5078 28.5625C55.4167 29.7344 55.306 30.7044 55.1758 31.4727C55.0586 32.2279 54.9544 32.8008 54.8633 33.1914C54.7852 33.5299 54.6484 33.7643 54.4531 33.8945C54.2578 34.0247 54.0365 34.1094 53.7891 34.1484C53.5547 34.1875 53.3138 34.207 53.0664 34.207C52.819 34.207 52.6042 34.2461 52.4219 34.3242C52.2005 34.4154 51.9727 34.4609 51.7383 34.4609C51.5169 34.4609 51.3281 34.4089 51.1719 34.3047C51.0286 34.2005 50.957 34.0182 50.957 33.7578C50.957 33.6667 50.9635 33.5885 50.9766 33.5234C51.0026 33.3672 51.0547 33.0286 51.1328 32.5078C51.224 31.987 51.3216 31.362 51.4258 30.6328C51.543 29.8906 51.6602 29.0768 51.7773 28.1914C51.8945 27.306 51.9987 26.4141 52.0898 25.5156C52.181 24.6172 52.2591 23.7448 52.3242 22.8984C52.3893 22.0521 52.4219 21.3034 52.4219 20.6523C52.4219 19.5716 52.3828 18.6211 52.3047 17.8008C52.2396 16.9674 52.1484 16.2318 52.0312 15.5938C51.9141 14.9427 51.7708 14.3633 51.6016 13.8555C51.4453 13.3346 51.276 12.8464 51.0938 12.3906C50.9115 11.9219 50.7227 11.4596 50.5273 11.0039C50.3451 10.5352 50.1628 10.0273 49.9805 9.48047C49.7461 8.77734 49.5768 8.08724 49.4727 7.41016C49.3815 6.72005 49.3359 6.05599 49.3359 5.41797C49.3359 4.76693 49.375 4.16146 49.4531 3.60156C49.5443 3.02865 49.6549 2.53385 49.7852 2.11719C49.9284 1.70052 50.0781 1.375 50.2344 1.14062C50.3906 0.893229 50.5404 0.769531 50.6836 0.769531C50.8529 0.769531 50.9831 0.873698 51.0742 1.08203C51.1654 1.29036 51.2109 1.54427 51.2109 1.84375C51.2109 1.94792 51.2044 2.07161 51.1914 2.21484C51.1914 2.35807 51.1914 2.52734 51.1914 2.72266C51.1914 3.04818 51.2109 3.44531 51.25 3.91406C51.2891 4.36979 51.3802 4.90365 51.5234 5.51562C51.6667 6.11458 51.875 6.78516 52.1484 7.52734C52.4219 8.26953 52.793 9.08333 53.2617 9.96875C53.4701 10.3594 53.6589 10.75 53.8281 11.1406C53.9974 11.5182 54.1536 11.8958 54.2969 12.2734C54.5312 11.0885 54.8372 10.0664 55.2148 9.20703C55.6055 8.34766 56.0221 7.61849 56.4648 7.01953C56.9076 6.42057 57.3633 5.93229 57.832 5.55469C58.3008 5.17708 58.75 4.89062 59.1797 4.69531C59.6094 4.48698 59.9935 4.35026 60.332 4.28516C60.6706 4.20703 60.9375 4.16797 61.1328 4.16797C61.6797 4.16797 62.1484 4.31771 62.5391 4.61719C62.9297 4.91667 63.2617 5.33333 63.5352 5.86719C63.8216 6.38802 64.0495 7.00651 64.2188 7.72266C64.401 8.42578 64.5378 9.1875 64.6289 10.0078C64.7331 10.8151 64.7982 11.6615 64.8242 12.5469C64.8633 13.4193 64.8828 14.2852 64.8828 15.1445C64.8828 16.9284 64.8503 18.4714 64.7852 19.7734C64.7331 21.0625 64.668 22.1888 64.5898 23.1523C64.5247 24.1029 64.4596 24.9232 64.3945 25.6133C64.3424 26.2904 64.3164 26.9089 64.3164 27.4688C64.3164 27.612 64.3424 27.7227 64.3945 27.8008C64.4596 27.8789 64.5312 27.918 64.6094 27.918C64.7396 27.918 64.8503 27.8594 64.9414 27.7422C65.0326 27.625 65.1237 27.3711 65.2148 26.9805C65.319 26.5768 65.4297 25.9909 65.5469 25.2227C65.6771 24.4544 65.8464 23.4193 66.0547 22.1172C66.224 21.0365 66.3802 19.9753 66.5234 18.9336C66.6667 17.8919 66.8229 16.9023 66.9922 15.9648C67.1745 15.0143 67.3828 14.1419 67.6172 13.3477C67.8516 12.5404 68.1445 11.8503 68.4961 11.2773C68.8607 10.6914 69.2969 10.2357 69.8047 9.91016C70.3125 9.57161 70.931 9.40234 71.6602 9.40234ZM82.0117 30.6133C82.3242 30.6133 82.5977 30.5091 82.832 30.3008C83.0664 30.0924 83.2617 29.819 83.418 29.4805C83.5872 29.1419 83.724 28.7513 83.8281 28.3086C83.9323 27.8529 84.0104 27.3841 84.0625 26.9023C83.6849 26.6419 83.3138 26.3034 82.9492 25.8867C82.5977 25.4701 82.2786 24.9622 81.9922 24.3633C81.8229 24.0117 81.6992 23.6536 81.6211 23.2891C81.543 22.9115 81.5039 22.5534 81.5039 22.2148C81.5039 21.7852 81.5625 21.3815 81.6797 21.0039C81.7969 20.6263 81.9661 20.3008 82.1875 20.0273C82.4219 19.7539 82.7083 19.5391 83.0469 19.3828C83.3854 19.2135 83.776 19.1289 84.2188 19.1289C84.7786 19.1289 85.2344 19.2656 85.5859 19.5391C85.9505 19.7995 86.237 20.138 86.4453 20.5547C86.6536 20.9583 86.7969 21.401 86.875 21.8828C86.9661 22.3646 87.0117 22.8138 87.0117 23.2305C87.0117 23.7773 86.9727 24.3372 86.8945 24.9102C86.8294 25.4831 86.7188 26.0625 86.5625 26.6484C87.0443 26.6094 87.474 26.4792 87.8516 26.2578C88.2292 26.0234 88.5482 25.6328 88.8086 25.0859C88.9648 24.7604 89.1276 24.5977 89.2969 24.5977C89.388 24.5977 89.4661 24.6237 89.5312 24.6758C89.6094 24.7279 89.6484 24.8125 89.6484 24.9297C89.6484 25.0208 89.6289 25.112 89.5898 25.2031C89.3294 25.9453 88.8932 26.5312 88.2812 26.9609C87.6823 27.3906 87.0117 27.6055 86.2695 27.6055C86.0482 28.2435 85.7747 28.849 85.4492 29.4219C85.1367 29.9818 84.7656 30.4766 84.3359 30.9062C83.9062 31.3359 83.418 31.6745 82.8711 31.9219C82.3242 32.1693 81.7188 32.293 81.0547 32.293C80.7031 32.293 80.306 32.2409 79.8633 32.1367C79.4206 32.0326 79.0039 31.8177 78.6133 31.4922C78.2227 31.1536 77.8971 30.6849 77.6367 30.0859C77.3633 29.474 77.2266 28.6667 77.2266 27.6641C77.2266 26.8438 77.3828 25.9779 77.6953 25.0664C77.9948 24.1549 78.5026 23.25 79.2188 22.3516C79.4922 22.013 79.7396 21.7721 79.9609 21.6289C80.1953 21.4857 80.3841 21.4141 80.5273 21.4141C80.8138 21.4141 80.957 21.5898 80.957 21.9414C80.957 22.0977 80.9049 22.293 80.8008 22.5273C80.6966 22.7617 80.5859 23.0612 80.4688 23.4258C80.3516 23.7904 80.2409 24.2266 80.1367 24.7344C80.0326 25.2292 79.9805 25.8151 79.9805 26.4922C79.9805 27.7943 80.1628 28.8099 80.5273 29.5391C80.9049 30.2552 81.3997 30.6133 82.0117 30.6133ZM84.1797 24.8711C84.1797 23.543 84.056 22.5924 83.8086 22.0195C83.5612 21.4336 83.2878 21.1992 82.9883 21.3164C82.8581 21.3685 82.7799 21.4857 82.7539 21.668C82.7409 21.8503 82.7344 22.026 82.7344 22.1953C82.7344 22.4818 82.7734 22.7812 82.8516 23.0938C82.9297 23.4062 83.0273 23.7188 83.1445 24.0312C83.2747 24.3438 83.4245 24.6432 83.5938 24.9297C83.776 25.2031 83.9648 25.457 84.1602 25.6914C84.1732 25.5482 84.1797 25.4115 84.1797 25.2812C84.1797 25.151 84.1797 25.0143 84.1797 24.8711ZM101.426 24.5977C101.504 24.5977 101.569 24.6237 101.621 24.6758C101.686 24.7279 101.719 24.8125 101.719 24.9297C101.719 24.9818 101.699 25.0729 101.66 25.2031C101.322 26.2188 100.996 27.1302 100.684 27.9375C100.371 28.7448 100.065 29.4479 99.7656 30.0469C99.4271 30.724 99.0495 31.2708 98.6328 31.6875C98.2161 32.1042 97.6628 32.3125 96.9727 32.3125C96.6992 32.3125 96.4258 32.2604 96.1523 32.1562C95.8919 32.0651 95.651 31.8958 95.4297 31.6484C95.2083 31.388 95.0065 31.0365 94.8242 30.5938C94.6419 30.151 94.5052 29.5911 94.4141 28.9141C94.2057 29.3307 93.9714 29.7474 93.7109 30.1641C93.4635 30.5807 93.1836 30.9518 92.8711 31.2773C92.5586 31.6029 92.2135 31.8633 91.8359 32.0586C91.4583 32.2669 91.0417 32.3711 90.5859 32.3711C90.2474 32.3711 89.9284 32.2604 89.6289 32.0391C89.3424 31.8307 89.0951 31.5378 88.8867 31.1602C88.6654 30.7695 88.4961 30.3073 88.3789 29.7734C88.2487 29.2396 88.1836 28.6471 88.1836 27.9961C88.1836 27.306 88.2487 26.6289 88.3789 25.9648C88.4961 25.3008 88.6654 24.6693 88.8867 24.0703C89.1081 23.4583 89.375 22.8984 89.6875 22.3906C90.013 21.8698 90.3646 21.4206 90.7422 21.043C91.3932 20.3919 92.0247 19.9167 92.6367 19.6172C93.2487 19.3047 93.7891 19.1484 94.2578 19.1484C94.3229 19.1484 94.375 19.1484 94.4141 19.1484C94.4531 19.1484 94.5117 19.1549 94.5898 19.168C94.6419 18.5299 94.694 17.8594 94.7461 17.1562C94.7982 16.4401 94.8763 15.6784 94.9805 14.8711C95.1107 13.8555 95.2279 12.9961 95.332 12.293C95.4362 11.5898 95.5339 10.9909 95.625 10.4961C95.7292 9.98828 95.8333 9.55859 95.9375 9.20703C96.0547 8.84245 96.1914 8.50391 96.3477 8.19141C96.4388 7.99609 96.5365 7.83333 96.6406 7.70312C96.7578 7.57292 96.875 7.45573 96.9922 7.35156C97.1224 7.2474 97.2591 7.13672 97.4023 7.01953C97.5586 6.88932 97.7279 6.73307 97.9102 6.55078C98.2357 6.22526 98.5091 5.9974 98.7305 5.86719C98.9648 5.72396 99.1471 5.65234 99.2773 5.65234C99.4206 5.65234 99.5378 5.69141 99.6289 5.76953C99.7331 5.83464 99.7852 5.97135 99.7852 6.17969C99.7852 6.24479 99.7786 6.31641 99.7656 6.39453C99.7526 6.47266 99.7331 6.55729 99.707 6.64844C99.6549 6.83073 99.5703 7.16927 99.4531 7.66406C99.3359 8.15885 99.2057 8.76432 99.0625 9.48047C98.9193 10.1836 98.7695 10.9844 98.6133 11.8828C98.457 12.7682 98.3138 13.6862 98.1836 14.6367C98.0404 15.7305 97.9102 16.8242 97.793 17.918C97.6888 18.9987 97.5977 20.0469 97.5195 21.0625C97.4544 22.0651 97.4023 23.0091 97.3633 23.8945C97.3242 24.7799 97.3047 25.5677 97.3047 26.2578C97.3047 26.7135 97.3177 27.1367 97.3438 27.5273C97.3828 27.9049 97.4414 28.237 97.5195 28.5234C97.5977 28.8099 97.7018 29.0312 97.832 29.1875C97.9753 29.3438 98.1445 29.4219 98.3398 29.4219C98.5612 29.4219 98.763 29.3307 98.9453 29.1484C99.1406 28.9531 99.3359 28.6732 99.5312 28.3086C99.7266 27.931 99.9349 27.4753 100.156 26.9414C100.378 26.3945 100.625 25.776 100.898 25.0859C101.016 24.7604 101.191 24.5977 101.426 24.5977ZM94.4141 21.5508C94.4141 20.9909 94.1732 20.7109 93.6914 20.7109C93.3138 20.7109 92.9557 20.8411 92.6172 21.1016C92.2786 21.362 91.9792 21.7266 91.7188 22.1953C91.4583 22.6641 91.25 23.224 91.0938 23.875C90.9375 24.526 90.8594 25.2422 90.8594 26.0234C90.8594 26.8698 90.9896 27.5729 91.25 28.1328C91.5234 28.6797 91.9401 28.9531 92.5 28.9531C92.8125 28.9531 93.0794 28.862 93.3008 28.6797C93.5221 28.4974 93.6979 28.263 93.8281 27.9766C93.9714 27.6901 94.0755 27.3841 94.1406 27.0586C94.2188 26.7201 94.2708 26.401 94.2969 26.1016C94.2969 25.6589 94.2969 25.2227 94.2969 24.793C94.3099 24.3503 94.3229 23.9271 94.3359 23.5234C94.349 23.1198 94.362 22.7487 94.375 22.4102C94.388 22.0716 94.401 21.7852 94.4141 21.5508ZM110.645 24.5977C110.723 24.5977 110.788 24.6237 110.84 24.6758C110.905 24.7279 110.938 24.806 110.938 24.9102C110.938 25.0143 110.918 25.112 110.879 25.2031C110.684 25.75 110.469 26.2643 110.234 26.7461C110.013 27.2279 109.805 27.6576 109.609 28.0352C109.375 28.4648 109.147 28.8685 108.926 29.2461C108.652 29.6758 108.346 30.0859 108.008 30.4766C107.682 30.8542 107.324 31.1927 106.934 31.4922C106.543 31.7786 106.12 32.0065 105.664 32.1758C105.208 32.3451 104.727 32.4297 104.219 32.4297C103.841 32.4297 103.424 32.3646 102.969 32.2344C102.526 32.1042 102.109 31.8633 101.719 31.5117C101.341 31.1602 101.029 30.6784 100.781 30.0664C100.521 29.4544 100.391 28.6667 100.391 27.7031C100.391 27.2604 100.436 26.8112 100.527 26.3555C100.605 25.8997 100.723 25.4635 100.879 25.0469C101.022 24.6302 101.185 24.2396 101.367 23.875C101.562 23.5104 101.758 23.1914 101.953 22.918C102.292 22.4492 102.65 22.013 103.027 21.6094C103.405 21.1927 103.783 20.8346 104.16 20.5352C104.551 20.2227 104.928 19.9818 105.293 19.8125C105.658 19.6432 105.996 19.5586 106.309 19.5586C106.803 19.5586 107.233 19.7474 107.598 20.125C107.975 20.5026 108.164 21.043 108.164 21.7461C108.164 22.3581 108.008 22.9961 107.695 23.6602C107.383 24.3112 106.992 24.9492 106.523 25.5742C106.055 26.1992 105.553 26.7786 105.02 27.3125C104.486 27.8464 103.997 28.2891 103.555 28.6406C103.789 29.2266 104.089 29.6562 104.453 29.9297C104.818 30.2031 105.189 30.3398 105.566 30.3398C106.152 30.3398 106.673 30.151 107.129 29.7734C107.598 29.3958 108.014 28.9336 108.379 28.3867C108.757 27.8398 109.082 27.2669 109.355 26.668C109.642 26.069 109.896 25.5417 110.117 25.0859C110.195 24.9297 110.273 24.8125 110.352 24.7344C110.43 24.6432 110.527 24.5977 110.645 24.5977ZM103.047 25.5352C103.047 26.3034 103.105 26.9805 103.223 27.5664C103.483 27.306 103.743 27.013 104.004 26.6875C104.277 26.349 104.518 26.0039 104.727 25.6523C104.948 25.3008 105.124 24.9427 105.254 24.5781C105.397 24.2135 105.469 23.862 105.469 23.5234C105.469 23.0026 105.358 22.599 105.137 22.3125C104.915 22.026 104.694 21.8828 104.473 21.8828C104.342 21.8828 104.193 21.9674 104.023 22.1367C103.867 22.293 103.711 22.5273 103.555 22.8398C103.411 23.1523 103.288 23.5365 103.184 23.9922C103.092 24.4349 103.047 24.9492 103.047 25.5352ZM117.5 24.5977C117.578 24.5977 117.643 24.6302 117.695 24.6953C117.76 24.7474 117.793 24.8255 117.793 24.9297C117.793 25.0208 117.773 25.112 117.734 25.2031C117.474 25.9583 117.22 26.6549 116.973 27.293C116.738 27.918 116.504 28.4974 116.27 29.0312C116.048 29.5391 115.833 29.9753 115.625 30.3398C115.43 30.7044 115.234 31.0104 115.039 31.2578C114.857 31.5052 114.668 31.707 114.473 31.8633C114.29 32.0065 114.102 32.1107 113.906 32.1758C113.711 32.2409 113.483 32.2734 113.223 32.2734C112.936 32.2734 112.624 32.2083 112.285 32.0781C111.947 31.9609 111.628 31.7266 111.328 31.375C111.042 31.0234 110.801 30.5352 110.605 29.9102C110.41 29.2721 110.312 28.4453 110.312 27.4297C110.312 27.1562 110.326 26.694 110.352 26.043C110.391 25.3919 110.436 24.6107 110.488 23.6992C110.553 22.7747 110.625 21.7331 110.703 20.5742C110.794 19.4154 110.892 18.1914 110.996 16.9023C111.061 16.1081 111.139 15.2422 111.23 14.3047C111.335 13.3542 111.439 12.4297 111.543 11.5312C111.647 10.6328 111.751 9.80599 111.855 9.05078C111.96 8.29557 112.051 7.70312 112.129 7.27344C112.22 6.81771 112.396 6.45964 112.656 6.19922C112.917 5.9388 113.21 5.65885 113.535 5.35938C113.652 5.24219 113.776 5.11849 113.906 4.98828C114.036 4.84505 114.167 4.71484 114.297 4.59766C114.427 4.48047 114.551 4.38281 114.668 4.30469C114.798 4.21354 114.922 4.16797 115.039 4.16797C115.221 4.16797 115.312 4.25911 115.312 4.44141C115.312 4.58464 115.28 4.84505 115.215 5.22266C115.15 5.60026 115.059 6.20573 114.941 7.03906C114.824 7.8724 114.681 8.9987 114.512 10.418C114.355 11.8242 114.186 13.6341 114.004 15.8477C113.965 16.2904 113.919 16.8177 113.867 17.4297C113.815 18.0417 113.763 18.6927 113.711 19.3828C113.659 20.0599 113.607 20.7565 113.555 21.4727C113.516 22.1758 113.477 22.8464 113.438 23.4844C113.398 24.1094 113.366 24.6823 113.34 25.2031C113.314 25.724 113.301 26.1406 113.301 26.4531C113.301 27.3516 113.392 28.0612 113.574 28.582C113.77 29.0898 114.089 29.3438 114.531 29.3438C114.779 29.3438 115 29.2331 115.195 29.0117C115.391 28.7904 115.579 28.4909 115.762 28.1133C115.944 27.7227 116.133 27.2734 116.328 26.7656C116.523 26.2448 116.738 25.6849 116.973 25.0859C117.038 24.9297 117.116 24.8125 117.207 24.7344C117.298 24.6432 117.396 24.5977 117.5 24.5977ZM122.852 28.9727L123.125 28.7383C123.398 28.4909 123.743 28.0807 124.16 27.5078C124.59 26.9349 125.013 26.1276 125.43 25.0859C125.573 24.7604 125.755 24.5977 125.977 24.5977C126.159 24.5977 126.25 24.7018 126.25 24.9102C126.25 24.9883 126.23 25.0859 126.191 25.2031C125.892 26.0495 125.566 26.7721 125.215 27.3711C124.876 27.9701 124.525 28.4779 124.16 28.8945C123.796 29.3112 123.431 29.6497 123.066 29.9102C122.715 30.1576 122.383 30.3464 122.07 30.4766C121.732 30.9844 121.335 31.4271 120.879 31.8047C120.436 32.1693 119.915 32.3516 119.316 32.3516C118.926 32.3516 118.594 32.2669 118.32 32.0977C118.047 31.9284 117.826 31.7201 117.656 31.4727C117.487 31.2253 117.363 30.9583 117.285 30.6719C117.207 30.3724 117.168 30.1055 117.168 29.8711C117.168 29.4284 117.22 29.0312 117.324 28.6797C117.441 28.3281 117.578 28.0286 117.734 27.7812C117.891 27.5339 118.053 27.3516 118.223 27.2344C118.405 27.1042 118.555 27.0391 118.672 27.0391C118.828 27.0391 118.984 27.1693 119.141 27.4297C119.297 27.6901 119.466 28.0547 119.648 28.5234C119.909 29.2266 120.13 29.7344 120.312 30.0469C120.508 30.0208 120.697 29.9948 120.879 29.9688C121.061 29.9297 121.243 29.8776 121.426 29.8125C121.517 29.6302 121.562 29.4674 121.562 29.3242C121.562 29.0898 121.497 28.8164 121.367 28.5039C121.237 28.1784 121.068 27.8398 120.859 27.4883C120.664 27.1237 120.443 26.7591 120.195 26.3945C119.948 26.0169 119.701 25.6654 119.453 25.3398C119.219 25.0013 118.997 24.6953 118.789 24.4219C118.581 24.1354 118.418 23.901 118.301 23.7188C118.21 24.0182 118.132 24.2786 118.066 24.5C118.001 24.7083 117.936 24.8906 117.871 25.0469C117.78 25.3073 117.695 25.4831 117.617 25.5742C117.552 25.6523 117.461 25.6914 117.344 25.6914C117.135 25.6914 117.031 25.5677 117.031 25.3203C117.031 25.2292 117.044 25.1445 117.07 25.0664C117.174 24.7279 117.259 24.4284 117.324 24.168C117.402 23.8945 117.467 23.6667 117.52 23.4844C117.572 23.263 117.617 23.0742 117.656 22.918C117.435 22.6445 117.24 22.332 117.07 21.9805C116.888 21.6159 116.797 21.1536 116.797 20.5938C116.797 20.1901 116.875 19.7474 117.031 19.2656C117.174 18.7708 117.363 18.3151 117.598 17.8984C117.832 17.4688 118.086 17.1107 118.359 16.8242C118.646 16.5378 118.919 16.3945 119.18 16.3945C119.336 16.3945 119.473 16.4466 119.59 16.5508C119.72 16.6419 119.824 16.7656 119.902 16.9219C119.993 17.0781 120.059 17.2604 120.098 17.4688C120.15 17.6641 120.176 17.8594 120.176 18.0547C120.176 18.4974 120.098 18.9987 119.941 19.5586C119.928 19.6107 119.909 19.6888 119.883 19.793C119.87 19.8841 119.863 19.9818 119.863 20.0859C119.863 20.4635 120.111 20.9909 120.605 21.668C121.1 22.3451 121.719 23.1068 122.461 23.9531C122.812 24.3568 123.066 24.7865 123.223 25.2422C123.379 25.6849 123.457 26.1992 123.457 26.7852C123.457 26.9674 123.438 27.1693 123.398 27.3906C123.359 27.599 123.314 27.7747 123.262 27.918L122.852 28.9727Z" fill="black"/>
</svg>
