<svg width="118" height="34" viewBox="0 0 118 34" fill="none" xmlns="http://www.w3.org/2000/svg">
<path d="M17.7207 1.14453L17.8965 1.20312C17.9941 1.35938 18.0234 1.54492 17.9844 1.75977C17.9746 1.83789 17.9111 1.9502 17.7939 2.09668C17.7451 2.16504 17.6963 2.22852 17.6475 2.28711C17.6084 2.33594 17.5742 2.38477 17.5449 2.43359C17.3301 2.60938 17.208 2.73145 17.1787 2.7998C17.1396 2.87793 17.0664 2.94141 16.959 2.99023C16.6074 3.12695 16.334 3.19531 16.1387 3.19531C16.0312 3.19531 15.9092 3.19531 15.7725 3.19531C15.6357 3.18555 15.4844 3.17578 15.3184 3.16602C15.084 3.16602 14.9131 3.17578 14.8057 3.19531C14.6982 3.21484 14.5273 3.25391 14.293 3.3125C14.2539 3.32227 14.2197 3.33203 14.1904 3.3418C14.1611 3.35156 14.1367 3.36133 14.1172 3.37109C14.0977 3.38086 14.0684 3.39062 14.0293 3.40039C14 3.41016 13.9609 3.41992 13.9121 3.42969C13.8242 3.46875 13.7314 3.48828 13.6338 3.48828C13.5459 3.48828 13.4727 3.51758 13.4141 3.57617C13.3164 3.55664 13.2578 3.55664 13.2383 3.57617C13.2285 3.58594 13.1699 3.61523 13.0625 3.66406C12.9258 3.68359 12.833 3.70312 12.7842 3.72266C12.7354 3.74219 12.6719 3.77148 12.5938 3.81055C12.5449 3.77148 12.4668 3.7666 12.3594 3.7959C12.3105 3.80566 12.2617 3.82031 12.2129 3.83984C12.1641 3.84961 12.1152 3.85938 12.0664 3.86914C11.9102 3.9082 11.7783 3.9375 11.6709 3.95703C11.583 3.9668 11.4805 4.00586 11.3633 4.07422C11.3438 4.14258 11.3145 4.19629 11.2754 4.23535C11.2363 4.27441 11.2266 4.32812 11.2461 4.39648C11.1191 4.5332 11.0215 4.68945 10.9531 4.86523C10.8848 5.03125 10.7773 5.17773 10.6309 5.30469L10.4551 5.6123C10.3867 5.73926 10.3086 5.83203 10.2207 5.89062C10.1719 6.05664 10.1084 6.18848 10.0303 6.28613C9.93262 6.39355 9.84961 6.50586 9.78125 6.62305C9.625 6.88672 9.45898 7.2627 9.2832 7.75098C9.10742 8.23926 8.94141 8.61523 8.78516 8.87891C8.7168 9.10352 8.60938 9.32324 8.46289 9.53809C8.31641 9.75293 8.19922 9.95312 8.11133 10.1387C8.0332 10.4707 7.94043 10.793 7.83301 11.1055C7.72559 11.4082 7.60352 11.7012 7.4668 11.9844C7.19336 12.5508 6.92969 13.1367 6.67578 13.7422C6.57813 13.957 6.51465 14.0791 6.48535 14.1084C6.45605 14.1377 6.44141 14.1816 6.44141 14.2402C6.33398 14.3477 6.26074 14.4697 6.22168 14.6064C6.18262 14.7334 6.12891 14.875 6.06055 15.0312C6.05078 15.0801 5.98242 15.168 5.85547 15.2949C5.83594 15.3438 5.81641 15.3975 5.79688 15.4561C5.77734 15.5049 5.75781 15.5586 5.73828 15.6172C5.71875 15.6758 5.69922 15.7344 5.67969 15.793C5.66016 15.8418 5.64062 15.8906 5.62109 15.9395C5.5625 16.0078 5.5332 16.0859 5.5332 16.1738C5.5332 16.252 5.51367 16.3105 5.47461 16.3496C5.35742 16.5645 5.29883 16.7012 5.29883 16.7598C5.29883 16.7988 5.28906 16.8574 5.26953 16.9355C5.19141 17.0918 5.12793 17.2334 5.0791 17.3604C5.03027 17.4775 4.99609 17.5752 4.97656 17.6533C4.92773 17.8486 4.85938 18 4.77148 18.1074C4.77148 18.2148 4.75195 18.3027 4.71289 18.3711C4.69336 18.4102 4.67383 18.4492 4.6543 18.4883C4.63477 18.5273 4.61523 18.5664 4.5957 18.6055C4.63477 18.7617 4.60547 18.9326 4.50781 19.1182C4.45898 19.2158 4.41016 19.3086 4.36133 19.3965C4.32227 19.4746 4.2832 19.5527 4.24414 19.6309C4.12695 19.9336 4.01953 20.1533 3.92188 20.29C3.85352 20.3877 3.79492 20.5 3.74609 20.627C3.62891 20.8906 3.5459 21.0518 3.49707 21.1104C3.42871 21.1885 3.36523 21.2812 3.30664 21.3887L3.02832 22.0039C2.93066 22.209 2.82812 22.3945 2.7207 22.5605V22.8096C2.7207 22.8779 2.71094 22.9609 2.69141 23.0586C2.65234 23.1562 2.58887 23.2588 2.50098 23.3662C2.41309 23.4736 2.33984 23.5371 2.28125 23.5566C2.08594 23.5566 1.94922 23.5713 1.87109 23.6006C1.80273 23.6299 1.72461 23.6445 1.63672 23.6445C1.53906 23.6055 1.44141 23.5469 1.34375 23.4688C1.24609 23.3906 1.1582 23.3125 1.08008 23.2344C0.972656 23.1074 0.870117 22.9902 0.772461 22.8828C0.674805 22.7754 0.582031 22.6826 0.494141 22.6045C0.308594 22.4385 0.210938 22.2188 0.201172 21.9453C0.181641 21.8086 0.201172 21.6719 0.259766 21.5352C0.318359 21.3984 0.425781 21.3105 0.582031 21.2715C0.806641 20.8125 0.967773 20.4316 1.06543 20.1289C1.11426 19.9727 1.16797 19.8164 1.22656 19.6602C1.29492 19.5039 1.36328 19.3477 1.43164 19.1914C1.4707 19.1133 1.50488 19.04 1.53418 18.9717C1.56348 18.9033 1.59766 18.8203 1.63672 18.7227C1.68555 18.6152 1.71484 18.5322 1.72461 18.4736C1.73438 18.415 1.76367 18.332 1.8125 18.2246C1.87109 18.0684 1.93945 17.9219 2.01758 17.7852C2.0957 17.6484 2.18359 17.502 2.28125 17.3457C2.42773 17.082 2.57422 16.7939 2.7207 16.4814C2.83789 16.2373 2.99414 15.959 3.18945 15.6465C3.23828 15.5098 3.29199 15.4072 3.35059 15.3389C3.40918 15.2705 3.46289 15.168 3.51172 15.0312C3.55078 14.9238 3.55566 14.8213 3.52637 14.7236C3.49707 14.6455 3.49219 14.5527 3.51172 14.4453C3.52148 14.3379 3.5752 14.2354 3.67285 14.1377C3.76074 14.0498 3.80469 13.9473 3.80469 13.8301L4.08301 13.3906C4.13184 13.3223 4.17578 13.2539 4.21484 13.1855C4.26367 13.1074 4.3125 13.0293 4.36133 12.9512C4.44922 12.7949 4.5127 12.6631 4.55176 12.5557C4.58105 12.4775 4.625 12.3848 4.68359 12.2773C4.77148 12.1406 4.82031 12.043 4.83008 11.9844C4.88867 11.8281 4.94727 11.6816 5.00586 11.5449C5.06445 11.4082 5.14258 11.291 5.24023 11.1934C5.2793 10.998 5.34277 10.8369 5.43066 10.71C5.51855 10.583 5.61133 10.4512 5.70898 10.3145C5.78711 10.0508 5.88965 9.81152 6.0166 9.59668C6.08496 9.48926 6.14355 9.37695 6.19238 9.25977C6.25098 9.14258 6.30469 9.02539 6.35352 8.9082C6.45117 8.70312 6.54395 8.42969 6.63184 8.08789C6.71973 7.74609 6.8125 7.47266 6.91016 7.26758C7.16406 6.80859 7.39844 6.35449 7.61328 5.90527C7.7207 5.68066 7.82812 5.45605 7.93555 5.23145C8.05273 4.99707 8.16992 4.76758 8.28711 4.54297C8.15039 4.54297 8.00879 4.54297 7.8623 4.54297C7.71582 4.54297 7.56445 4.54785 7.4082 4.55762C7.0957 4.57715 6.82227 4.5625 6.58789 4.51367C6.49023 4.51367 6.42676 4.52832 6.39746 4.55762C6.36816 4.58691 6.29492 4.5918 6.17773 4.57227C6.11914 4.57227 6.04102 4.5625 5.94336 4.54297C5.8457 4.52344 5.75781 4.51367 5.67969 4.51367C5.49414 4.49414 5.30371 4.51855 5.1084 4.58691C5.00098 4.62598 4.89355 4.66016 4.78613 4.68945C4.68848 4.70898 4.5957 4.72852 4.50781 4.74805C4.24414 4.79688 4.09277 4.86035 4.05371 4.93848C4.01465 5.0166 3.89258 5.08008 3.6875 5.12891C3.59961 5.16797 3.49707 5.17773 3.37988 5.1582C3.28223 5.13867 3.17969 5.16797 3.07227 5.24609C2.85742 5.20703 2.66699 5.10449 2.50098 4.93848C2.33496 4.77246 2.19336 4.5918 2.07617 4.39648C2.03711 4.31836 1.97852 4.28906 1.90039 4.30859C1.8125 4.32812 1.76367 4.28906 1.75391 4.19141C1.71484 4.03516 1.71484 3.87891 1.75391 3.72266C1.76367 3.67383 1.79297 3.625 1.8418 3.57617C1.88086 3.53711 1.90039 3.48828 1.90039 3.42969C2.06641 3.38086 2.20801 3.35156 2.3252 3.3418C2.44238 3.33203 2.55469 3.27344 2.66211 3.16602C2.98438 3.10742 3.25293 3.04883 3.46777 2.99023C3.5752 2.96094 3.69238 2.93164 3.81934 2.90234C3.95605 2.86328 4.10742 2.82422 4.27344 2.78516C4.46875 2.67773 4.57129 2.63379 4.58105 2.65332C4.59082 2.66309 4.61523 2.66797 4.6543 2.66797L5.32812 2.52148C5.58203 2.46289 5.8457 2.4043 6.11914 2.3457C6.39258 2.30664 6.6123 2.28223 6.77832 2.27246C6.94434 2.2627 7.18359 2.26758 7.49609 2.28711C7.84766 2.29688 8.19922 2.28223 8.55078 2.24316L9.54688 2.11133C9.61523 2.0918 9.67383 2.07715 9.72266 2.06738C9.78125 2.05762 9.83008 2.04785 9.86914 2.03809L10.0742 1.99414C10.1328 1.98437 10.1865 1.97949 10.2354 1.97949C10.2939 1.96973 10.3477 1.96484 10.3965 1.96484C10.4941 1.96484 10.5723 1.92578 10.6309 1.84766C11.002 1.76953 11.3438 1.70117 11.6562 1.64258C11.9688 1.58398 12.2715 1.53027 12.5645 1.48145C12.7891 1.44238 13.0918 1.38867 13.4727 1.32031C13.8633 1.24219 14.2051 1.18359 14.498 1.14453C14.8203 1.10547 15.0742 1.06152 15.2598 1.0127C15.4648 0.963867 15.748 0.958984 16.1094 0.998047C16.2656 1.01758 16.3828 1.02734 16.4609 1.02734C16.5195 1.02734 16.583 1.03223 16.6514 1.04199C16.7197 1.04199 16.793 1.04687 16.8711 1.05664C16.9199 1.06641 16.9785 1.08105 17.0469 1.10059C17.1152 1.12012 17.1885 1.13965 17.2666 1.15918C17.4424 1.20801 17.5938 1.20312 17.7207 1.14453ZM23.9902 14.5332C24.0879 14.543 24.1514 14.582 24.1807 14.6504C24.21 14.709 24.2637 14.7383 24.3418 14.7383C24.3809 14.9238 24.3418 15.0557 24.2246 15.1338C24.1074 15.2021 24.0684 15.3145 24.1074 15.4707C23.9316 15.5879 23.7168 15.6611 23.4629 15.6904C23.1992 15.7197 23.0039 15.8223 22.877 15.998C22.5352 16.1641 22.1787 16.2666 21.8076 16.3057C21.6221 16.3252 21.4268 16.3545 21.2217 16.3936C21.0264 16.4229 20.8262 16.457 20.6211 16.4961C20.4062 16.6426 20.2744 16.7207 20.2256 16.7305C20.1572 16.7402 20.084 16.7695 20.0059 16.8184C19.8008 16.7402 19.5957 16.7012 19.3906 16.7012C19.1855 16.7012 18.9707 16.6719 18.7461 16.6133C18.6387 16.6523 18.5264 16.6719 18.4092 16.6719C18.292 16.6719 18.1797 16.6914 18.0723 16.7305C17.9941 16.9062 17.9551 17.082 17.9551 17.2578C17.9551 17.4434 17.9258 17.6191 17.8672 17.7852L17.6914 18.1367L17.6475 18.415C17.6279 18.5322 17.6035 18.625 17.5742 18.6934C17.5352 18.752 17.4912 18.8203 17.4424 18.8984C17.3936 18.9766 17.3691 19.0645 17.3691 19.1621C17.2324 19.3379 17.1348 19.5186 17.0762 19.7041C17.0176 19.9189 16.9102 20.0898 16.7539 20.2168C16.6953 20.4219 16.6025 20.5781 16.4756 20.6855C16.3486 20.8027 16.2266 20.9395 16.1094 21.0957C15.8945 21.3887 15.7041 21.6426 15.5381 21.8574C15.3721 22.0723 15.1523 22.2578 14.8789 22.4141C14.7812 22.5703 14.6641 22.6777 14.5273 22.7363C14.4297 22.834 14.3516 22.9316 14.293 23.0293L13.707 23.3809C13.4727 23.5273 13.248 23.625 13.0332 23.6738C12.7012 23.752 12.3789 23.7422 12.0664 23.6445C11.7539 23.5469 11.4609 23.4102 11.1875 23.2344C11.002 23.2539 10.8604 23.2197 10.7627 23.1318C10.665 23.0537 10.5332 22.9902 10.3672 22.9414C10.1523 22.7461 9.91797 22.5703 9.66406 22.4141C9.40039 22.248 9.21484 22.0332 9.10742 21.7695L8.97559 21.125C8.93652 20.9297 8.89258 20.7344 8.84375 20.5391C8.80469 20.373 8.7998 20.1875 8.8291 19.9824C8.8584 19.8066 8.86328 19.6113 8.84375 19.3965C8.84375 19.2891 8.84375 19.1914 8.84375 19.1035C8.84375 19.0059 8.83887 18.9229 8.8291 18.8545C8.81934 18.708 8.86328 18.5273 8.96094 18.3125C9.01953 18.1855 9.06836 18.0684 9.10742 17.9609C9.14648 17.8535 9.17578 17.7607 9.19531 17.6826C9.21484 17.6045 9.23438 17.5312 9.25391 17.4629C9.27344 17.3848 9.29297 17.3164 9.3125 17.2578C9.3418 17.209 9.37109 17.1602 9.40039 17.1113C9.42969 17.0527 9.45898 16.9941 9.48828 16.9355C9.51758 16.877 9.54688 16.8232 9.57617 16.7744C9.61523 16.7158 9.6543 16.6621 9.69336 16.6133C9.81055 16.4375 9.94727 16.2617 10.1035 16.0859C10.2598 15.9102 10.416 15.7441 10.5723 15.5879C10.6797 15.4414 10.7871 15.3145 10.8945 15.207C11.0703 15.0312 11.2363 14.8848 11.3926 14.7676C11.5488 14.6504 11.7246 14.4941 11.9199 14.2988C11.959 14.2402 12.0078 14.1914 12.0664 14.1523L12.2422 14.0352C12.4375 13.918 12.6182 13.8203 12.7842 13.7422C12.9502 13.6641 13.1406 13.5762 13.3555 13.4785C13.541 13.3906 13.6924 13.3369 13.8096 13.3174C13.8877 13.2979 13.9658 13.2832 14.0439 13.2734C14.1318 13.2539 14.2246 13.2344 14.3223 13.2148H14.6738C14.7812 13.2148 14.8789 13.1953 14.9668 13.1562C14.9082 13 14.9766 12.8926 15.1719 12.834C15.3672 12.7754 15.5137 12.7559 15.6113 12.7754C15.8066 12.7754 15.9629 12.8193 16.0801 12.9072C16.1973 12.9951 16.3047 13.0977 16.4023 13.2148C16.5977 13.3516 16.8125 13.5566 17.0469 13.8301C17.0957 13.8789 17.1445 13.9082 17.1934 13.918C17.2422 13.9277 17.291 13.957 17.3398 14.0059C17.418 14.123 17.4717 14.2305 17.501 14.3281C17.5303 14.4453 17.5938 14.5527 17.6914 14.6504C17.75 14.6895 17.8086 14.7383 17.8672 14.7969C17.9258 14.8555 17.9648 14.9336 17.9844 15.0312C18.1895 15.1094 18.375 15.168 18.541 15.207C18.6289 15.2461 18.7314 15.2559 18.8486 15.2363C18.9561 15.2168 19.0781 15.2168 19.2148 15.2363C19.3027 15.2461 19.3906 15.2705 19.4785 15.3096C19.5566 15.3389 19.6445 15.3535 19.7422 15.3535C19.8887 15.3438 20.0498 15.3047 20.2256 15.2363C20.3916 15.1777 20.582 15.168 20.7969 15.207C21.0898 15.2754 21.3975 15.2461 21.7197 15.1191C22.042 14.9824 22.3691 14.8945 22.7012 14.8555C22.7988 14.8555 22.8672 14.8506 22.9062 14.8408C22.9453 14.8311 23.0137 14.8262 23.1113 14.8262C23.209 14.748 23.3359 14.6895 23.4922 14.6504C23.6484 14.6113 23.8145 14.5723 23.9902 14.5332ZM15.6113 15.4121C15.416 15.2363 15.3037 15.124 15.2744 15.0752C15.2354 15.0166 15.2012 14.9824 15.1719 14.9727C15.084 14.8848 14.9863 14.8359 14.8789 14.8262C14.8203 14.8164 14.7617 14.8066 14.7031 14.7969C14.6543 14.7871 14.6055 14.7773 14.5566 14.7676C14.2441 14.709 13.9854 14.7432 13.7803 14.8701C13.6826 14.9385 13.5801 15.002 13.4727 15.0605C13.375 15.1191 13.2773 15.1777 13.1797 15.2363C12.8672 15.4316 12.5938 15.6758 12.3594 15.9688C12.3008 16.0664 12.2373 16.1738 12.1689 16.291C12.1006 16.4082 12.0469 16.5352 12.0078 16.6719C11.9297 16.8281 11.8613 16.9697 11.8027 17.0967C11.7441 17.2236 11.6953 17.375 11.6562 17.5508C11.5586 17.7363 11.5 17.8975 11.4805 18.0342C11.4707 18.1025 11.4609 18.166 11.4512 18.2246C11.4414 18.2734 11.4316 18.3223 11.4219 18.3711C11.4121 18.4688 11.3975 18.5713 11.3779 18.6787C11.3584 18.7764 11.3389 18.8789 11.3193 18.9863C11.2705 19.2305 11.2461 19.416 11.2461 19.543C11.2656 19.6016 11.2949 19.6797 11.334 19.7773C11.373 19.875 11.4121 19.9434 11.4512 19.9824C11.4902 20.0801 11.5342 20.1875 11.583 20.3047C11.6318 20.4219 11.6758 20.5098 11.7148 20.5684C11.8223 20.7051 11.9492 20.793 12.0957 20.832C12.1738 20.8516 12.2568 20.876 12.3447 20.9053C12.4326 20.9248 12.5254 20.9492 12.623 20.9785C12.8379 21.0957 12.9844 21.1445 13.0625 21.125C13.1602 21.1055 13.2188 21.0957 13.2383 21.0957C13.502 21.0469 13.7266 20.9395 13.9121 20.7734C14.0781 20.6172 14.2734 20.4805 14.498 20.3633C14.5762 20.2461 14.6543 20.124 14.7324 19.9971C14.8203 19.8701 14.9131 19.7432 15.0107 19.6162C15.1084 19.4795 15.1963 19.3477 15.2744 19.2207C15.3623 19.084 15.4453 18.9473 15.5234 18.8105C15.5723 18.752 15.6211 18.6641 15.6699 18.5469C15.6895 18.498 15.709 18.4541 15.7285 18.415C15.748 18.3662 15.7676 18.3223 15.7871 18.2832C15.9238 18.1172 15.9873 18.0293 15.9775 18.0195C15.9678 18.0098 15.9727 17.9805 15.9922 17.9316C16.1191 17.6387 16.1777 17.4141 16.168 17.2578C16.1582 17.1016 16.1582 16.9453 16.168 16.7891C16.1191 16.6816 16.0752 16.5693 16.0361 16.4521C15.9971 16.335 15.958 16.2129 15.9189 16.0859C15.8408 15.8223 15.7383 15.5977 15.6113 15.4121ZM28.5312 19.6016C28.8633 19.5039 29.1953 19.416 29.5273 19.3379C29.8594 19.2598 30.2012 19.2012 30.5527 19.1621C30.8652 19.1426 31.1875 19.084 31.5195 18.9863L31.9297 18.8545C31.998 18.835 32.0615 18.8154 32.1201 18.7959C32.1885 18.7666 32.252 18.7422 32.3105 18.7227C32.4473 18.6836 32.5791 18.6494 32.7061 18.6201C32.833 18.5908 32.9453 18.5664 33.043 18.5469C33.1992 18.6641 33.2725 18.7275 33.2627 18.7373C33.2529 18.7471 33.2676 18.7715 33.3066 18.8105L33.0723 19.2207C32.9941 19.2793 32.9014 19.3184 32.7939 19.3379C32.6963 19.3477 32.5938 19.377 32.4863 19.4258C32.3887 19.4844 32.3301 19.5234 32.3105 19.543C32.2617 19.5918 32.2227 19.6211 32.1934 19.6309C32.1055 19.6504 32.042 19.6455 32.0029 19.6162C31.9443 19.5771 31.9004 19.5527 31.8711 19.543C31.3926 19.8555 30.8555 20.0703 30.2598 20.1875C29.6348 20.3047 29.0586 20.4512 28.5312 20.627C28.3359 20.7246 28.1406 20.8271 27.9453 20.9346C27.75 21.042 27.5449 21.1641 27.3301 21.3008C27.1738 21.6133 26.9541 21.916 26.6709 22.209C26.3877 22.502 26.0996 22.7559 25.8066 22.9707C25.7285 23.0293 25.665 23.0732 25.6162 23.1025C25.5771 23.1221 25.543 23.1416 25.5137 23.1611C25.4941 23.1807 25.4746 23.1953 25.4551 23.2051C25.3867 23.2344 25.3135 23.2588 25.2354 23.2783C25.1572 23.3076 25.0791 23.332 25.001 23.3516C24.9229 23.3711 24.8447 23.3906 24.7666 23.4102C24.6885 23.4297 24.6152 23.4492 24.5469 23.4688C24.4297 23.5859 24.332 23.6445 24.2539 23.6445C24.127 23.6641 24.0098 23.6445 23.9023 23.5859C23.7754 23.5176 23.6484 23.4785 23.5215 23.4688C23.4238 23.293 23.3652 23.1709 23.3457 23.1025C23.3262 23.0537 23.2871 23.0195 23.2285 23C23.1797 22.8047 23.0674 22.6191 22.8916 22.4434C22.7256 22.2773 22.5938 22.0918 22.4961 21.8867C22.457 21.8086 22.4229 21.7256 22.3936 21.6377C22.3643 21.5498 22.3496 21.4668 22.3496 21.3887C22.3691 21.1738 22.457 20.9883 22.6133 20.832C22.7695 20.6758 22.9258 20.5488 23.082 20.4512C23.1992 20.627 23.3018 20.6953 23.3896 20.6562C23.4775 20.6172 23.5508 20.5781 23.6094 20.5391C23.6777 20.5098 23.7607 20.4854 23.8584 20.4658L24.0488 20.4219C24.3418 20.3535 24.6543 20.2949 24.9863 20.2461C25.2012 20.2266 25.3672 20.2314 25.4844 20.2607C25.6309 20.29 25.7871 20.2852 25.9531 20.2461C26.0508 20.0703 26.1729 19.9043 26.3193 19.748C26.4658 19.5918 26.6074 19.4453 26.7441 19.3086C26.8418 19.0742 26.9688 18.8203 27.125 18.5469C27.2812 18.2734 27.4375 18.0098 27.5938 17.7559L27.8574 17.2285C27.8965 17.1895 27.9307 17.1504 27.96 17.1113C27.9893 17.0723 28.0234 17.0137 28.0625 16.9355C28.1016 16.7793 28.1162 16.6279 28.1064 16.4814C28.0967 16.335 28.082 16.1738 28.0625 15.998C27.877 15.8906 27.6914 15.7441 27.5059 15.5586C27.3887 15.6074 27.2764 15.6074 27.1689 15.5586C27.0615 15.5098 26.9492 15.5098 26.832 15.5586C26.7734 15.5684 26.7148 15.5977 26.6562 15.6465C26.627 15.666 26.5928 15.6855 26.5537 15.7051C26.5244 15.7246 26.4902 15.7441 26.4512 15.7637C26.2754 15.8613 26.085 15.9492 25.8799 16.0273C25.6748 16.0957 25.5137 16.2129 25.3965 16.3789C25.2891 16.4863 25.1914 16.5889 25.1035 16.6865C25.0156 16.7744 24.9375 16.8574 24.8691 16.9355C24.8008 17.0137 24.7275 17.0967 24.6494 17.1846C24.5811 17.2627 24.5078 17.3457 24.4297 17.4336C24.332 17.5117 24.249 17.5801 24.1807 17.6387C24.1221 17.6875 24.083 17.7314 24.0635 17.7705C24.0342 17.8193 23.9902 17.873 23.9316 17.9316C23.873 17.9902 23.8145 18.0488 23.7559 18.1074C23.6973 18.1562 23.6387 18.2051 23.5801 18.2539C23.4629 18.3516 23.3555 18.459 23.2578 18.5762C23.1992 18.6543 23.1455 18.708 23.0967 18.7373C23.0479 18.7666 22.9941 18.8203 22.9355 18.8984C22.8184 19.0254 22.7158 19.1719 22.6279 19.3379C22.5498 19.4844 22.457 19.6406 22.3496 19.8066L21.7637 20.7441C21.6562 21.0469 21.5391 21.3496 21.4121 21.6523C21.2949 21.9453 21.168 22.2334 21.0312 22.5166C20.8945 22.7998 20.7627 23.0928 20.6357 23.3955C20.5186 23.6982 20.4062 24.0059 20.2988 24.3184C20.2598 24.5234 20.2305 24.6357 20.2109 24.6553C20.1914 24.6748 20.1816 24.6992 20.1816 24.7285C20.1621 24.8066 20.1475 24.8799 20.1377 24.9482C20.1182 25.0166 20.0986 25.085 20.0791 25.1533C20.0498 25.2803 20.0059 25.4023 19.9473 25.5195C19.9082 25.6758 19.8496 25.8369 19.7715 26.0029C19.6934 26.1689 19.6152 26.3301 19.5371 26.4863C19.4102 26.7988 19.293 27.0967 19.1855 27.3799C19.0684 27.7021 18.9512 28.0098 18.834 28.3027C18.7852 28.4102 18.7412 28.5176 18.7021 28.625C18.6631 28.7324 18.624 28.8398 18.585 28.9473L18.3652 29.5918C18.3164 29.6992 18.2822 29.8164 18.2627 29.9434C18.2529 30.002 18.2432 30.0605 18.2334 30.1191C18.2236 30.1777 18.209 30.2363 18.1895 30.2949C18.1309 30.5 18.0576 30.7246 17.9697 30.9688C17.8721 31.2227 17.8184 31.4473 17.8086 31.6426C17.5254 31.916 17.3301 32.1504 17.2227 32.3457C17.0078 32.5605 16.7832 32.751 16.5488 32.917C16.3145 33.083 16.0508 33.2246 15.7578 33.3418C15.5723 33.3418 15.333 33.3223 15.04 33.2832C14.7373 33.2539 14.5859 33.127 14.5859 32.9023C14.5664 32.7266 14.5713 32.502 14.6006 32.2285C14.6299 31.9551 14.6934 31.7207 14.791 31.5254C14.8691 31.3105 14.9521 31.1055 15.04 30.9102C15.1279 30.7148 15.2109 30.5488 15.2891 30.4121C15.4062 29.9043 15.5527 29.4746 15.7285 29.123C15.7773 29.0156 15.8262 28.9131 15.875 28.8154C15.9238 28.7178 15.9727 28.6201 16.0215 28.5225C16.1289 28.3174 16.2168 28.1172 16.2852 27.9219C16.334 27.7852 16.3633 27.6387 16.373 27.4824C16.3828 27.3262 16.4414 27.1895 16.5488 27.0723C16.6855 26.7402 16.8564 26.4277 17.0615 26.1348C17.2666 25.8418 17.4766 25.5488 17.6914 25.2559C17.7988 25.0898 17.8867 24.9287 17.9551 24.7725C18.0332 24.6064 18.1211 24.4453 18.2188 24.2891C18.3945 23.9863 18.541 23.6738 18.6582 23.3516C18.7754 23.0195 18.9414 22.7168 19.1562 22.4434C19.2051 22.3359 19.2539 22.2334 19.3027 22.1357C19.3516 22.0381 19.4004 21.9404 19.4492 21.8428L19.7422 21.2715C19.7715 21.2031 19.8057 21.1006 19.8447 20.9639C19.8838 20.8271 19.918 20.7246 19.9473 20.6562C20.0059 20.5684 20.0645 20.4805 20.123 20.3926C20.1719 20.2949 20.2207 20.1973 20.2695 20.0996C20.4453 19.709 20.626 19.3232 20.8115 18.9424C20.9971 18.5615 21.207 18.1855 21.4414 17.8145C21.4512 17.6094 21.5049 17.4141 21.6025 17.2285C21.6514 17.1406 21.6953 17.0479 21.7344 16.9502C21.7734 16.8525 21.8125 16.75 21.8516 16.6426C21.9102 16.4766 21.9541 16.3105 21.9834 16.1445C22.0225 15.9395 22.0566 15.7734 22.0859 15.6465C22.1445 15.4707 22.2129 15.334 22.291 15.2363C22.3984 15.0996 22.4863 14.9531 22.5547 14.7969C22.5742 14.7676 22.5938 14.7383 22.6133 14.709C22.6328 14.6797 22.6523 14.6455 22.6719 14.6064C22.6914 14.5674 22.7109 14.5332 22.7305 14.5039C22.75 14.4746 22.7695 14.4453 22.7891 14.416C22.8477 14.2988 22.8916 14.1963 22.9209 14.1084C22.9404 14.04 22.9941 13.9473 23.082 13.8301C23.3164 13.5566 23.4678 13.4053 23.5361 13.376C23.585 13.3564 23.6338 13.332 23.6826 13.3027C23.7314 13.2637 23.7852 13.2246 23.8438 13.1855C24.2344 13.166 24.4785 13.2588 24.5762 13.4639C24.6738 13.6689 24.7617 13.8789 24.8398 14.0938C24.8008 14.25 24.7617 14.4062 24.7227 14.5625C24.6836 14.7188 24.6445 14.9043 24.6055 15.1191C24.6836 15.0508 24.7617 14.9824 24.8398 14.9141C24.9277 14.8359 25.0205 14.7578 25.1182 14.6797C25.3135 14.5137 25.4844 14.3574 25.6309 14.2109C25.7969 14.1133 25.958 14.0107 26.1143 13.9033C26.2803 13.7959 26.4414 13.6885 26.5977 13.5811C26.9102 13.3564 27.2617 13.166 27.6523 13.0098C27.75 12.9707 27.8525 12.9316 27.96 12.8926C28.0674 12.8535 28.1699 12.834 28.2676 12.834C28.3555 12.834 28.4385 12.8584 28.5166 12.9072C28.6143 12.9658 28.707 13 28.7949 13.0098C28.9023 13.1172 29.0146 13.21 29.1318 13.2881C29.2393 13.3564 29.3516 13.459 29.4688 13.5957C29.5469 13.6934 29.6055 13.8105 29.6445 13.9473C29.6641 14.0156 29.6836 14.084 29.7031 14.1523C29.7227 14.2207 29.7422 14.2891 29.7617 14.3574C29.7812 14.4258 29.8008 14.4941 29.8203 14.5625C29.8496 14.6309 29.8838 14.6992 29.9229 14.7676C29.9912 14.8945 30.0352 15.0215 30.0547 15.1484C30.0547 15.207 30.0449 15.3047 30.0254 15.4414C30.0059 15.5781 29.9961 15.6758 29.9961 15.7344C29.9961 15.8125 30.001 15.8711 30.0107 15.9102C30.0205 15.9492 30.0254 16.0273 30.0254 16.1445C30.0156 16.3301 29.9375 16.5742 29.791 16.877L29.4395 17.6094C29.4004 17.6875 29.3613 17.7656 29.3223 17.8438C29.293 17.9121 29.2637 17.9805 29.2344 18.0488L29.0293 18.4883C28.9316 18.7031 28.8438 18.8984 28.7656 19.0742C28.6875 19.25 28.6094 19.4258 28.5312 19.6016ZM42.7988 24.1719C42.8379 23.957 42.9014 23.7715 42.9893 23.6152C43.0674 23.4688 43.1309 23.3027 43.1797 23.1172C43.3652 22.6777 43.5605 22.3164 43.7656 22.0332C43.8047 21.877 43.8584 21.7402 43.9268 21.623C43.9951 21.5059 44.0684 21.3984 44.1465 21.3008C44.2539 21.0371 44.3467 20.7783 44.4248 20.5244C44.5029 20.2705 44.6055 20.0215 44.7324 19.7773C44.9668 19.3281 45.2061 18.8643 45.4502 18.3857C45.6943 17.9072 45.9336 17.4336 46.168 16.9648C46.2266 16.8574 46.2852 16.75 46.3438 16.6426C46.4023 16.5254 46.4561 16.4131 46.5049 16.3057C46.5537 16.1982 46.6074 16.0908 46.666 15.9834C46.7344 15.8662 46.8027 15.7539 46.8711 15.6465L46.9883 15.1777C47.0371 15.002 47.0859 14.8457 47.1348 14.709C47.1152 14.582 47.125 14.4893 47.1641 14.4307L47.2812 14.2109L47.3691 13.8594C47.4277 13.625 47.5059 13.4346 47.6035 13.2881C47.6914 13.1514 47.7695 12.9707 47.8379 12.7461C47.8965 12.707 47.9453 12.6484 47.9844 12.5703C48.0234 12.4922 48.0625 12.4141 48.1016 12.3359C48.1797 12.1211 48.2578 11.9111 48.3359 11.7061C48.4141 11.4912 48.4922 11.2812 48.5703 11.0762C48.6484 10.8711 48.7266 10.6611 48.8047 10.4463C48.8828 10.2314 48.9609 10.0117 49.0391 9.78711C49.1465 9.5332 49.2344 9.34277 49.3027 9.21582C49.3809 9.0791 49.4395 8.91797 49.4785 8.73242C49.6738 8.2832 49.8691 7.83887 50.0645 7.39941C50.2598 6.95996 50.4648 6.51562 50.6797 6.06641C50.748 5.90039 50.8164 5.74414 50.8848 5.59766C50.9531 5.45117 51.0215 5.31445 51.0898 5.1875C51.1582 5.04102 51.2461 4.88965 51.3535 4.7334C51.4316 4.61621 51.5 4.47461 51.5586 4.30859C51.6074 4.19141 51.6074 4.06445 51.5586 3.92773C51.3438 3.9375 51.1533 4.00586 50.9873 4.13281C50.8311 4.25 50.6406 4.36719 50.416 4.48438C50.3672 4.51367 50.3135 4.54785 50.2549 4.58691C50.2061 4.61621 50.1523 4.65039 50.0938 4.68945C50.0352 4.77734 49.9814 4.83105 49.9326 4.85059C49.8936 4.87012 49.8594 4.89453 49.8301 4.92383C49.6445 5.03125 49.4639 5.15332 49.2881 5.29004C49.1221 5.41699 48.9316 5.53906 48.7168 5.65625C48.6289 5.73438 48.5361 5.81738 48.4385 5.90527C48.3506 5.9834 48.2578 6.06152 48.1602 6.13965C48.0625 6.21777 47.9648 6.30078 47.8672 6.38867C47.7793 6.4668 47.6914 6.54492 47.6035 6.62305C47.5352 6.75 47.4082 6.86719 47.2227 6.97461C47.125 7.07227 47.0322 7.17969 46.9443 7.29688C46.8564 7.41406 46.7637 7.52148 46.666 7.61914C46.6465 7.87305 46.5879 8.1123 46.4902 8.33691C46.3926 8.56152 46.2949 8.78125 46.1973 8.99609C46.1387 9.15234 46.0898 9.29883 46.0508 9.43555C46.1289 9.47461 46.2021 9.45996 46.2705 9.3916C46.3389 9.32324 46.4121 9.29883 46.4902 9.31836C46.7734 9.20117 47.0078 9.05469 47.1934 8.87891C47.3594 8.72266 47.5645 8.55664 47.8086 8.38086C48.0039 8.22461 48.1846 8.04395 48.3506 7.83887C48.5166 7.63379 48.6777 7.42383 48.834 7.20898C48.9219 7.12109 48.9902 7.04785 49.0391 6.98926C49.0977 6.93066 49.1367 6.8916 49.1562 6.87207C49.2051 6.82324 49.2734 6.79883 49.3613 6.79883C49.459 6.88672 49.5127 6.95508 49.5225 7.00391C49.5322 7.02344 49.5273 7.0625 49.5078 7.12109C49.3223 7.57031 49.1367 7.93652 48.9512 8.21973C48.8633 8.34668 48.7754 8.4834 48.6875 8.62988C48.6094 8.7666 48.5312 8.9082 48.4531 9.05469C48.248 9.25977 48.0918 9.45996 47.9844 9.65527C47.8965 9.82129 47.7793 9.99219 47.6328 10.168C47.5352 10.3438 47.4375 10.5146 47.3398 10.6807C47.2422 10.8467 47.1152 10.9785 46.959 11.0762C46.6074 11.1543 46.3389 11.1494 46.1533 11.0615L45.6699 10.8418C45.6309 10.8125 45.5527 10.7881 45.4355 10.7686C45.3379 10.749 45.2598 10.7148 45.2012 10.666C45.1035 10.5488 45.0352 10.4658 44.9961 10.417C44.957 10.3682 44.9473 10.3047 44.9668 10.2266C44.8496 10.1094 44.791 9.91406 44.791 9.64062C44.8691 9.43555 44.9033 9.32324 44.8936 9.30371C44.8838 9.28418 44.8887 9.25 44.9082 9.20117C44.918 9.16211 44.9424 9.10352 44.9814 9.02539C45.0205 8.94727 45.0449 8.88867 45.0547 8.84961C45.084 8.80078 45.1084 8.71777 45.1279 8.60059C45.1475 8.4834 45.1719 8.39062 45.2012 8.32227C45.2598 8.14648 45.3672 7.95117 45.5234 7.73633L45.6553 7.41406C45.6846 7.33594 45.7285 7.22852 45.7871 7.0918L45.9336 6.74023C45.9824 6.57422 46.0068 6.49121 46.0068 6.49121C46.0264 6.47168 46.041 6.44727 46.0508 6.41797C46.1191 6.20312 46.1826 6.04688 46.2412 5.94922C46.29 5.87109 46.3145 5.7832 46.3145 5.68555C46.793 4.98242 47.3984 4.36719 48.1309 3.83984C48.4043 3.625 48.6924 3.41016 48.9951 3.19531C49.2979 2.98047 49.6055 2.77539 49.918 2.58008C50.0742 2.42383 50.2598 2.27246 50.4746 2.12598C50.6895 1.97949 50.9043 1.83789 51.1191 1.70117C51.1973 1.66211 51.2754 1.61816 51.3535 1.56934C51.4316 1.52051 51.5049 1.47168 51.5732 1.42285C51.7197 1.31543 51.8809 1.24219 52.0566 1.20312C52.1836 1.16406 52.3105 1.17383 52.4375 1.23242C52.6328 1.34961 52.7598 1.40332 52.8184 1.39355C52.8574 1.38379 52.9062 1.38867 52.9648 1.4082C53.082 1.44727 53.1797 1.53516 53.2578 1.67188C53.3359 1.80859 53.3945 1.92578 53.4336 2.02344C53.4922 2.14062 53.5557 2.27734 53.624 2.43359C53.6924 2.58984 53.7461 2.77539 53.7852 2.99023L53.8291 3.2832C53.8389 3.33203 53.8438 3.38086 53.8438 3.42969C53.8535 3.47852 53.8633 3.52734 53.873 3.57617C53.873 3.64453 53.8828 3.74707 53.9023 3.88379C53.9219 4.02051 53.9316 4.11328 53.9316 4.16211C53.9121 4.33789 53.8535 4.51367 53.7559 4.68945C53.6582 4.86523 53.5703 5.02148 53.4922 5.1582C53.4238 5.29492 53.3555 5.43652 53.2871 5.58301C53.2285 5.71973 53.1748 5.85645 53.126 5.99316C53.0283 6.2666 52.8965 6.54492 52.7305 6.82812C52.6133 6.98438 52.5547 7.07715 52.5547 7.10645C52.5547 7.13574 52.5449 7.16016 52.5254 7.17969C52.4473 7.39453 52.3887 7.53613 52.3496 7.60449C52.3301 7.64355 52.3105 7.6875 52.291 7.73633C52.2715 7.78516 52.252 7.83398 52.2324 7.88281L51.9248 8.60059C51.876 8.72754 51.8223 8.85449 51.7637 8.98145C51.7148 9.1084 51.666 9.24023 51.6172 9.37695C51.7246 9.35742 51.8125 9.26953 51.8809 9.11328C51.9883 9.04492 52.0859 8.91797 52.1738 8.73242C52.2715 8.63477 52.3496 8.54688 52.4082 8.46875C52.4473 8.41992 52.4814 8.37109 52.5107 8.32227C52.5498 8.27344 52.5791 8.22949 52.5986 8.19043C52.6377 8.1123 52.7012 8.0293 52.7891 7.94141C53.0039 7.72656 53.2139 7.49219 53.4189 7.23828C53.624 6.98438 53.8242 6.73047 54.0195 6.47656C54.2734 6.24219 54.498 5.96387 54.6934 5.6416C54.8887 5.31934 55.0645 4.99219 55.2207 4.66016C55.3379 4.5625 55.4502 4.46484 55.5576 4.36719C55.665 4.26953 55.7676 4.15234 55.8652 4.01562C56.1094 3.82031 56.3682 3.57129 56.6416 3.26855C56.9248 2.95605 57.1592 2.72168 57.3447 2.56543C57.5889 2.36035 57.8574 2.19922 58.1504 2.08203C58.4434 1.96484 58.7754 1.92578 59.1465 1.96484C59.2441 2.07227 59.332 2.19922 59.4102 2.3457C59.4785 2.47266 59.5762 2.58984 59.7031 2.69727C59.8594 3.08789 59.9912 3.50293 60.0986 3.94238C60.2061 4.38184 60.25 4.88477 60.2305 5.45117C60.1816 5.62695 60.1182 5.78809 60.04 5.93457C59.9619 6.07129 59.8984 6.25195 59.8496 6.47656L59.7471 6.74023C59.7373 6.7793 59.7227 6.82324 59.7031 6.87207C59.6836 6.91113 59.6641 6.95508 59.6445 7.00391C59.6055 7.12109 59.5518 7.24805 59.4834 7.38477C59.4248 7.51172 59.3564 7.65332 59.2783 7.80957C59.1025 8.1416 58.9902 8.42969 58.9414 8.67383C58.8926 8.72266 58.8584 8.7959 58.8389 8.89355L58.7949 9.17188C58.6777 9.41602 58.6191 9.61621 58.6191 9.77246C58.6191 9.93848 58.5996 10.0801 58.5605 10.1973C58.4629 10.5488 58.375 10.9004 58.2969 11.252C58.2188 11.6035 58.1406 11.9648 58.0625 12.3359C58.0234 12.4531 57.9941 12.5605 57.9746 12.6582C57.9551 12.7559 57.9355 12.8535 57.916 12.9512C57.877 13.0391 57.8428 13.1611 57.8135 13.3174C57.7842 13.4736 57.75 13.5957 57.7109 13.6836C57.7695 13.6738 57.8281 13.6201 57.8867 13.5225C57.9648 13.4053 58.0234 13.3223 58.0625 13.2734L58.3701 12.8047C58.4189 12.7266 58.4678 12.6484 58.5166 12.5703C58.5752 12.4922 58.6289 12.4141 58.6777 12.3359C58.7559 12.2285 58.8291 12.1211 58.8975 12.0137C58.9756 11.9062 59.0488 11.8037 59.1172 11.7061C59.2637 11.4814 59.4102 11.2812 59.5566 11.1055C59.752 10.8125 59.9033 10.5781 60.0107 10.4023C60.1182 10.2266 60.2207 10.041 60.3184 9.8457C60.4746 9.68945 60.6016 9.5332 60.6992 9.37695C60.748 9.29883 60.8018 9.2207 60.8604 9.14258C60.9189 9.06445 60.9824 8.98633 61.0508 8.9082C61.168 8.66406 61.2949 8.42969 61.4316 8.20508C61.5293 8.03906 61.6074 7.88281 61.666 7.73633C61.8418 7.50195 62.0176 7.27734 62.1934 7.0625C62.3691 6.84766 62.5547 6.63281 62.75 6.41797C62.8379 6.33008 62.916 6.25195 62.9844 6.18359C63.0625 6.11523 63.126 6.06152 63.1748 6.02246C63.2236 5.97363 63.2773 5.92969 63.3359 5.89062C63.3945 5.8418 63.4531 5.79297 63.5117 5.74414C63.7559 5.43164 64.0488 5.12891 64.3906 4.83594C64.6641 4.45508 64.9912 4.1084 65.3721 3.7959C65.5674 3.63965 65.7529 3.48828 65.9287 3.3418C66.1045 3.18555 66.2754 3.0293 66.4414 2.87305C66.6562 2.80469 66.8223 2.70215 66.9395 2.56543C67.0566 2.42871 67.1738 2.41406 67.291 2.52148C67.4863 2.36523 67.6621 2.31152 67.8184 2.36035C67.9746 2.40918 68.082 2.45312 68.1406 2.49219C68.3848 2.7168 68.5312 2.87305 68.5801 2.96094C68.6191 3.01953 68.6484 3.08789 68.668 3.16602C68.6875 3.24414 68.7168 3.3125 68.7559 3.37109L68.9316 3.81055C68.9512 3.84961 68.9707 3.89355 68.9902 3.94238C69.0098 3.98145 69.0293 4.02539 69.0488 4.07422L69.166 4.36719C69.2441 4.52344 69.3174 4.70898 69.3857 4.92383C69.4541 5.13867 69.4785 5.35352 69.459 5.56836C69.4492 5.61719 69.4395 5.6709 69.4297 5.72949C69.4199 5.77832 69.4102 5.83203 69.4004 5.89062C69.3809 6.01758 69.3516 6.14453 69.3125 6.27148C69.2832 6.34961 69.2539 6.42285 69.2246 6.49121C69.1953 6.55957 69.1709 6.62793 69.1514 6.69629L69.0195 7.0625C69 7.11133 68.9854 7.16016 68.9756 7.20898C68.9658 7.24805 68.9561 7.28711 68.9463 7.32617C68.9268 7.43359 68.9023 7.51172 68.873 7.56055C68.7559 7.86328 68.5996 8.21973 68.4043 8.62988C68.3066 8.8252 68.2188 9.00586 68.1406 9.17188C68.0723 9.33789 68.0137 9.48438 67.9648 9.61133C67.9551 9.78711 67.8867 9.94336 67.7598 10.0801C67.7109 10.2949 67.6621 10.4512 67.6133 10.5488C67.5547 10.6758 67.4961 10.8223 67.4375 10.9883C67.4082 11.0566 67.3838 11.1494 67.3643 11.2666C67.3447 11.3838 67.3203 11.4766 67.291 11.5449C67.2324 11.6816 67.1836 11.7842 67.1445 11.8525C67.1055 11.9209 67.0566 12.0234 66.998 12.1602C66.959 12.3164 66.9199 12.4678 66.8809 12.6143C66.8418 12.7607 66.7832 12.9023 66.7051 13.0391C66.627 13.2539 66.5488 13.459 66.4707 13.6543C66.3926 13.8496 66.2949 14.0254 66.1777 14.1816C65.7871 14.8164 65.4648 15.5146 65.2109 16.2764C64.9668 17.0186 64.6738 17.7363 64.332 18.4297C64.3223 18.5371 64.2832 18.6543 64.2148 18.7812C64.1855 18.8398 64.1562 18.8984 64.127 18.957C64.1074 19.0156 64.0879 19.0742 64.0684 19.1328C63.9707 19.25 63.8975 19.4062 63.8486 19.6016C63.8096 19.7578 63.7559 19.9434 63.6875 20.1582C63.6289 20.3535 63.6387 20.5146 63.7168 20.6416C63.7949 20.7686 63.8633 20.8516 63.9219 20.8906C64.0195 20.9492 64.1611 20.9688 64.3467 20.9492C64.5322 20.9297 64.6738 20.9004 64.7715 20.8613C64.8301 20.8418 64.8936 20.8223 64.9619 20.8027C65.0303 20.7832 65.1035 20.7637 65.1816 20.7441C65.2598 20.7246 65.333 20.7051 65.4014 20.6855C65.4697 20.666 65.5332 20.6465 65.5918 20.627C65.7578 20.5684 65.8896 20.5098 65.9873 20.4512C66.0361 20.4219 66.0898 20.3926 66.1484 20.3633C66.207 20.334 66.2656 20.3047 66.3242 20.2754C66.4316 20.1973 66.5586 20.1387 66.7051 20.0996C66.7734 20.0312 66.832 19.9922 66.8809 19.9824C66.9297 19.9727 66.9785 19.9434 67.0273 19.8945C67.2422 19.7188 67.4619 19.5039 67.6865 19.25C67.8916 19.0156 68.1211 18.8008 68.375 18.6055C68.7168 18.0781 69.166 17.6191 69.7227 17.2285C69.9375 17.3457 70.0791 17.4531 70.1475 17.5508C70.2158 17.6484 70.2793 17.7461 70.3379 17.8438C70.3574 18.0391 70.3281 18.1904 70.25 18.2979C70.1719 18.4053 70.1035 18.5273 70.0449 18.6641C69.8887 18.8203 69.7324 18.9814 69.5762 19.1475C69.4297 19.3135 69.2832 19.4795 69.1367 19.6455C68.8438 19.9873 68.541 20.3047 68.2285 20.5977C68.1797 20.7051 68.1309 20.8174 68.082 20.9346C68.0332 21.042 67.9844 21.1494 67.9355 21.2568C67.8281 21.4814 67.6816 21.6523 67.4961 21.7695C67.3301 21.8867 67.1738 21.999 67.0273 22.1064C66.8906 22.2139 66.7637 22.3164 66.6465 22.4141C66.4121 22.6094 66.1582 22.7559 65.8848 22.8535C65.377 23.1562 64.8691 23.5078 64.3613 23.9082C64.1562 24.0449 63.9121 24.1719 63.6289 24.2891C63.4727 24.2012 63.3945 24.1572 63.3945 24.1572L63.3359 24.1133C63.0234 24.0645 62.7939 23.9424 62.6475 23.7471C62.5107 23.5518 62.3398 23.3613 62.1348 23.1758C61.8711 22.9121 61.6758 22.5508 61.5488 22.0918C61.4707 21.8379 61.3975 21.5938 61.3291 21.3594C61.2607 21.125 61.2461 20.8418 61.2852 20.5098C61.3047 20.2949 61.3535 20.0898 61.4316 19.8945C61.5098 19.6992 61.5879 19.5137 61.666 19.3379C61.832 18.9668 62.0029 18.5908 62.1787 18.21C62.3643 17.8193 62.5547 17.4238 62.75 17.0234C63.1602 16.1934 63.4824 15.4219 63.7168 14.709C63.7754 14.6113 63.8096 14.5283 63.8193 14.46L63.8633 14.2695C63.9414 14.0742 64.0342 13.874 64.1416 13.6689C64.249 13.4639 64.3516 13.2734 64.4492 13.0977C64.5078 12.834 64.5908 12.585 64.6982 12.3506C64.7471 12.2432 64.7959 12.1309 64.8447 12.0137C64.9033 11.8867 64.957 11.7598 65.0059 11.6328C65.123 11.457 65.2109 11.252 65.2695 11.0176C65.3281 10.793 65.4258 10.5879 65.5625 10.4023L65.9141 9.28906C66.041 8.87891 66.1289 8.48828 66.1777 8.11719C66.1973 7.95117 66.1973 7.80469 66.1777 7.67773C66.1582 7.54102 66.1582 7.38477 66.1777 7.20898C66.1875 6.98438 66.2168 6.73047 66.2656 6.44727C66.3047 6.17383 66.3047 5.89062 66.2656 5.59766C66.2168 5.63672 66.168 5.67578 66.1191 5.71484C66.0703 5.74414 66.0215 5.77344 65.9727 5.80273C65.9238 5.83203 65.875 5.86621 65.8262 5.90527C65.7773 5.93457 65.7285 5.96875 65.6797 6.00781C65.5723 6.10547 65.4502 6.19824 65.3135 6.28613C65.1963 6.36426 65.084 6.45703 64.9766 6.56445C64.918 6.62305 64.8691 6.66699 64.8301 6.69629C64.8008 6.72559 64.7812 6.74512 64.7715 6.75488C64.7617 6.76465 64.7471 6.77441 64.7275 6.78418C64.7178 6.79395 64.7031 6.80859 64.6836 6.82812C64.5762 7.01367 64.4883 7.12598 64.4199 7.16504C64.3516 7.2041 64.2832 7.26758 64.2148 7.35547C64.0391 7.62891 63.9072 7.80957 63.8193 7.89746C63.7705 7.94629 63.7168 8 63.6582 8.05859C63.6094 8.11719 63.5605 8.17578 63.5117 8.23438C63.5117 8.26367 63.4873 8.35156 63.4385 8.49805C63.3896 8.64453 63.3652 8.73242 63.3652 8.76172C63.0625 9.2793 62.7695 9.67969 62.4863 9.96289C62.3789 10.1289 62.2666 10.29 62.1494 10.4463C62.042 10.6025 61.9346 10.7539 61.8271 10.9004C61.7197 11.0469 61.6123 11.1982 61.5049 11.3545C61.3975 11.5107 61.2949 11.6719 61.1973 11.8379C61.002 12.1602 60.8115 12.4043 60.626 12.5703C60.46 12.7168 60.2891 12.9219 60.1133 13.1855C59.9375 13.3613 59.7617 13.5762 59.5859 13.8301C59.5078 13.9473 59.4199 14.0596 59.3223 14.167C59.2344 14.2744 59.1367 14.377 59.0293 14.4746C58.873 14.6895 58.7217 14.8994 58.5752 15.1045C58.4287 15.3096 58.2871 15.5293 58.1504 15.7637C58.1113 15.8418 58.0234 16.0078 57.8867 16.2617C57.75 16.5156 57.6621 16.6816 57.623 16.7598C57.5352 16.916 57.457 17.1016 57.3887 17.3164C57.3301 17.5215 57.252 17.6973 57.1543 17.8438C57.0762 17.9805 56.9932 18.1172 56.9053 18.2539C56.8271 18.3809 56.7441 18.5078 56.6562 18.6348C56.5684 18.7617 56.4805 18.8936 56.3926 19.0303C56.3145 19.1572 56.2363 19.2891 56.1582 19.4258C56.0703 19.6309 56.0166 19.7969 55.9971 19.9238C55.9678 20.0801 55.9043 20.1875 55.8066 20.2461C55.6895 20.5098 55.5771 20.7197 55.4697 20.876C55.3623 21.0322 55.25 21.252 55.1328 21.5352C55.0742 21.6719 54.9814 21.7695 54.8545 21.8281C54.7275 21.8867 54.6055 21.8867 54.4883 21.8281C54.3418 21.7695 54.2148 21.6523 54.1074 21.4766C54.0586 21.3887 54.0098 21.3105 53.9609 21.2422C53.9121 21.1641 53.8633 21.0957 53.8145 21.0371C53.7656 20.8613 53.7119 20.7246 53.6533 20.627C53.585 20.5195 53.5508 20.3828 53.5508 20.2168C53.5312 20.1289 53.5361 20.041 53.5654 19.9531C53.5947 19.8652 53.5996 19.7773 53.5801 19.6895C53.5215 19.4551 53.5215 19.2646 53.5801 19.1182L53.7266 18.7227C53.7949 18.5176 53.8633 18.3906 53.9316 18.3418C53.9512 18.2734 53.9707 18.21 53.9902 18.1514C54.0098 18.083 54.0244 18.0195 54.0342 17.9609C54.0537 17.9023 54.0684 17.8438 54.0781 17.7852C54.0977 17.7168 54.1172 17.6484 54.1367 17.5801C54.1562 17.5312 54.1758 17.4824 54.1953 17.4336C54.2148 17.3848 54.2344 17.3408 54.2539 17.3018C54.2734 17.2529 54.293 17.209 54.3125 17.1699C54.332 17.1211 54.3516 17.0723 54.3711 17.0234L54.4736 16.7598C54.4932 16.7207 54.5078 16.6816 54.5176 16.6426C54.5371 16.5938 54.5566 16.5449 54.5762 16.4961C54.5957 16.3984 54.6055 16.3398 54.6055 16.3203C54.6055 16.2715 54.625 16.2129 54.6641 16.1445C54.6836 16.0566 54.7031 15.9688 54.7227 15.8809C54.752 15.793 54.7861 15.71 54.8252 15.6318C54.8643 15.5537 54.8984 15.4707 54.9277 15.3828C54.9668 15.2852 55.0059 15.1875 55.0449 15.0898C55.0938 14.9531 55.1719 14.748 55.2793 14.4746C55.3965 14.2012 55.5088 13.9375 55.6162 13.6836C55.7236 13.4297 55.7969 13.2734 55.8359 13.2148C55.875 13.1172 55.9238 13 55.9824 12.8633C56.041 12.7266 56.0996 12.5996 56.1582 12.4824C56.2656 12.2871 56.3291 12.1553 56.3486 12.0869C56.3584 12.0576 56.3633 12.0137 56.3633 11.9551C56.2852 11.8184 56.29 11.6377 56.3779 11.4131C56.4658 11.1885 56.5586 10.959 56.6562 10.7246C56.7051 10.6074 56.7441 10.4902 56.7734 10.373C56.8125 10.2461 56.8418 10.1191 56.8613 9.99219C56.9102 9.72852 56.9688 9.48438 57.0371 9.25977C57.0859 9.09375 57.1396 8.91797 57.1982 8.73242C57.2666 8.53711 57.335 8.33203 57.4033 8.11719C57.54 7.7168 57.6328 7.29688 57.6816 6.85742C57.6816 6.7793 57.6816 6.70605 57.6816 6.6377C57.6914 6.55957 57.7012 6.48633 57.7109 6.41797C57.7305 6.28125 57.6719 6.20312 57.5352 6.18359C57.4961 6.08594 57.457 5.98828 57.418 5.89062C57.3789 5.79297 57.3203 5.71484 57.2422 5.65625C57.0371 5.65625 56.8857 5.71973 56.7881 5.84668C56.7393 5.91504 56.6855 5.97852 56.627 6.03711C56.5684 6.0957 56.5098 6.1543 56.4512 6.21289C56.3438 6.35938 56.2314 6.50098 56.1143 6.6377C56.0068 6.76465 55.8896 6.88672 55.7627 7.00391C55.6357 7.12109 55.5137 7.24805 55.3965 7.38477C55.2891 7.52148 55.1816 7.66797 55.0742 7.82422C54.8594 8.03906 54.625 8.30273 54.3711 8.61523C54.1172 8.92773 53.9121 9.19141 53.7559 9.40625C53.707 9.55273 53.6289 9.66016 53.5215 9.72852C53.3945 9.80664 53.2969 9.89453 53.2285 9.99219C53.1797 10.0508 53.126 10.1143 53.0674 10.1826C53.0088 10.251 52.9453 10.3242 52.877 10.4023C52.8086 10.4805 52.7451 10.5586 52.6865 10.6367C52.6279 10.7148 52.5742 10.793 52.5254 10.8711C52.4473 10.9688 52.3643 11.0664 52.2764 11.1641C52.1885 11.2617 52.0957 11.3594 51.998 11.457C51.959 11.5059 51.9004 11.5889 51.8223 11.7061C51.793 11.7451 51.7588 11.7891 51.7197 11.8379C51.6904 11.8867 51.6562 11.9355 51.6172 11.9844C51.4316 12.1699 51.3145 12.3066 51.2656 12.3945C51.207 12.502 51.1289 12.5898 51.0312 12.6582C50.8945 12.9219 50.7529 13.1758 50.6064 13.4199L50.1523 14.2109C50.0742 14.2598 50.0156 14.3281 49.9766 14.416C49.9277 14.5332 49.8789 14.6211 49.8301 14.6797C49.7812 14.9141 49.7178 15.0898 49.6396 15.207C49.5518 15.334 49.4785 15.4805 49.4199 15.6465C49.127 16.0957 48.8828 16.501 48.6875 16.8623C48.4922 17.2236 48.2969 17.5996 48.1016 17.9902C48.0039 18.1758 47.9453 18.293 47.9258 18.3418C47.916 18.3711 47.8867 18.4102 47.8379 18.459C47.8086 18.5273 47.7793 18.5957 47.75 18.6641C47.7207 18.7227 47.6865 18.7812 47.6475 18.8398C47.6084 18.8984 47.5742 18.957 47.5449 19.0156C47.5156 19.0742 47.4863 19.1328 47.457 19.1914C47.4277 19.2305 47.4033 19.2891 47.3838 19.3672C47.374 19.4258 47.3398 19.4746 47.2812 19.5137C47.0566 20.1582 46.7979 20.7393 46.5049 21.2568C46.2021 21.7939 45.9336 22.375 45.6992 23C45.6504 23.0488 45.6211 23.1025 45.6113 23.1611C45.6016 23.2295 45.5723 23.293 45.5234 23.3516C45.3086 23.5664 45.167 23.6543 45.0986 23.6152C45.0303 23.5762 44.9473 23.5566 44.8496 23.5566C44.7715 23.5566 44.708 23.5859 44.6592 23.6445C44.6201 23.7031 44.5273 23.7324 44.3809 23.7324C44.2051 23.7324 44.0977 23.752 44.0586 23.791C44.0195 23.8301 43.9414 23.8789 43.8242 23.9375C43.668 24.0352 43.5654 24.0938 43.5166 24.1133C43.4678 24.1328 43.4238 24.123 43.3848 24.084C43.375 24.1426 43.3359 24.1719 43.2676 24.1719C43.2188 24.1719 43.1699 24.2109 43.1211 24.2891C43.082 24.2402 43.0332 24.2207 42.9746 24.2305C42.916 24.25 42.8574 24.2305 42.7988 24.1719ZM83.4043 14.5332C83.502 14.543 83.5654 14.582 83.5947 14.6504C83.624 14.709 83.6777 14.7383 83.7559 14.7383C83.7949 14.9238 83.7559 15.0557 83.6387 15.1338C83.5215 15.2021 83.4824 15.3145 83.5215 15.4707C83.3457 15.5879 83.1309 15.6611 82.877 15.6904C82.6133 15.7197 82.418 15.8223 82.291 15.998C81.9492 16.1641 81.5928 16.2666 81.2217 16.3057C81.0361 16.3252 80.8408 16.3545 80.6357 16.3936C80.4404 16.4229 80.2402 16.457 80.0352 16.4961C79.8203 16.6426 79.6885 16.7207 79.6396 16.7305C79.5713 16.7402 79.498 16.7695 79.4199 16.8184C79.2148 16.7402 79.0098 16.7012 78.8047 16.7012C78.5996 16.7012 78.3848 16.6719 78.1602 16.6133C78.0527 16.6523 77.9404 16.6719 77.8232 16.6719C77.7061 16.6719 77.5938 16.6914 77.4863 16.7305C77.4082 16.9062 77.3691 17.082 77.3691 17.2578C77.3691 17.4434 77.3398 17.6191 77.2812 17.7852L77.1055 18.1367L77.0615 18.415C77.042 18.5322 77.0176 18.625 76.9883 18.6934C76.9492 18.752 76.9053 18.8203 76.8564 18.8984C76.8076 18.9766 76.7832 19.0645 76.7832 19.1621C76.6465 19.3379 76.5488 19.5186 76.4902 19.7041C76.4316 19.9189 76.3242 20.0898 76.168 20.2168C76.1094 20.4219 76.0166 20.5781 75.8896 20.6855C75.7627 20.8027 75.6406 20.9395 75.5234 21.0957C75.3086 21.3887 75.1182 21.6426 74.9521 21.8574C74.7861 22.0723 74.5664 22.2578 74.293 22.4141C74.1953 22.5703 74.0781 22.6777 73.9414 22.7363C73.8438 22.834 73.7656 22.9316 73.707 23.0293L73.1211 23.3809C72.8867 23.5273 72.6621 23.625 72.4473 23.6738C72.1152 23.752 71.793 23.7422 71.4805 23.6445C71.168 23.5469 70.875 23.4102 70.6016 23.2344C70.416 23.2539 70.2744 23.2197 70.1768 23.1318C70.0791 23.0537 69.9473 22.9902 69.7812 22.9414C69.5664 22.7461 69.332 22.5703 69.0781 22.4141C68.8145 22.248 68.6289 22.0332 68.5215 21.7695L68.3896 21.125C68.3506 20.9297 68.3066 20.7344 68.2578 20.5391C68.2188 20.373 68.2139 20.1875 68.2432 19.9824C68.2725 19.8066 68.2773 19.6113 68.2578 19.3965C68.2578 19.2891 68.2578 19.1914 68.2578 19.1035C68.2578 19.0059 68.2529 18.9229 68.2432 18.8545C68.2334 18.708 68.2773 18.5273 68.375 18.3125C68.4336 18.1855 68.4824 18.0684 68.5215 17.9609C68.5605 17.8535 68.5898 17.7607 68.6094 17.6826C68.6289 17.6045 68.6484 17.5312 68.668 17.4629C68.6875 17.3848 68.707 17.3164 68.7266 17.2578C68.7559 17.209 68.7852 17.1602 68.8145 17.1113C68.8438 17.0527 68.873 16.9941 68.9023 16.9355C68.9316 16.877 68.9609 16.8232 68.9902 16.7744C69.0293 16.7158 69.0684 16.6621 69.1074 16.6133C69.2246 16.4375 69.3613 16.2617 69.5176 16.0859C69.6738 15.9102 69.8301 15.7441 69.9863 15.5879C70.0938 15.4414 70.2012 15.3145 70.3086 15.207C70.4844 15.0312 70.6504 14.8848 70.8066 14.7676C70.9629 14.6504 71.1387 14.4941 71.334 14.2988C71.373 14.2402 71.4219 14.1914 71.4805 14.1523L71.6562 14.0352C71.8516 13.918 72.0322 13.8203 72.1982 13.7422C72.3643 13.6641 72.5547 13.5762 72.7695 13.4785C72.9551 13.3906 73.1064 13.3369 73.2236 13.3174C73.3018 13.2979 73.3799 13.2832 73.458 13.2734C73.5459 13.2539 73.6387 13.2344 73.7363 13.2148H74.0879C74.1953 13.2148 74.293 13.1953 74.3809 13.1562C74.3223 13 74.3906 12.8926 74.5859 12.834C74.7812 12.7754 74.9277 12.7559 75.0254 12.7754C75.2207 12.7754 75.377 12.8193 75.4941 12.9072C75.6113 12.9951 75.7188 13.0977 75.8164 13.2148C76.0117 13.3516 76.2266 13.5566 76.4609 13.8301C76.5098 13.8789 76.5586 13.9082 76.6074 13.918C76.6562 13.9277 76.7051 13.957 76.7539 14.0059C76.832 14.123 76.8857 14.2305 76.915 14.3281C76.9443 14.4453 77.0078 14.5527 77.1055 14.6504C77.1641 14.6895 77.2227 14.7383 77.2812 14.7969C77.3398 14.8555 77.3789 14.9336 77.3984 15.0312C77.6035 15.1094 77.7891 15.168 77.9551 15.207C78.043 15.2461 78.1455 15.2559 78.2627 15.2363C78.3701 15.2168 78.4922 15.2168 78.6289 15.2363C78.7168 15.2461 78.8047 15.2705 78.8926 15.3096C78.9707 15.3389 79.0586 15.3535 79.1562 15.3535C79.3027 15.3438 79.4639 15.3047 79.6396 15.2363C79.8057 15.1777 79.9961 15.168 80.2109 15.207C80.5039 15.2754 80.8115 15.2461 81.1338 15.1191C81.4561 14.9824 81.7832 14.8945 82.1152 14.8555C82.2129 14.8555 82.2812 14.8506 82.3203 14.8408C82.3594 14.8311 82.4277 14.8262 82.5254 14.8262C82.623 14.748 82.75 14.6895 82.9062 14.6504C83.0625 14.6113 83.2285 14.5723 83.4043 14.5332ZM75.0254 15.4121C74.8301 15.2363 74.7178 15.124 74.6885 15.0752C74.6494 15.0166 74.6152 14.9824 74.5859 14.9727C74.498 14.8848 74.4004 14.8359 74.293 14.8262C74.2344 14.8164 74.1758 14.8066 74.1172 14.7969C74.0684 14.7871 74.0195 14.7773 73.9707 14.7676C73.6582 14.709 73.3994 14.7432 73.1943 14.8701C73.0967 14.9385 72.9941 15.002 72.8867 15.0605C72.7891 15.1191 72.6914 15.1777 72.5938 15.2363C72.2812 15.4316 72.0078 15.6758 71.7734 15.9688C71.7148 16.0664 71.6514 16.1738 71.583 16.291C71.5146 16.4082 71.4609 16.5352 71.4219 16.6719C71.3438 16.8281 71.2754 16.9697 71.2168 17.0967C71.1582 17.2236 71.1094 17.375 71.0703 17.5508C70.9727 17.7363 70.9141 17.8975 70.8945 18.0342C70.8848 18.1025 70.875 18.166 70.8652 18.2246C70.8555 18.2734 70.8457 18.3223 70.8359 18.3711C70.8262 18.4688 70.8115 18.5713 70.792 18.6787C70.7725 18.7764 70.7529 18.8789 70.7334 18.9863C70.6846 19.2305 70.6602 19.416 70.6602 19.543C70.6797 19.6016 70.709 19.6797 70.748 19.7773C70.7871 19.875 70.8262 19.9434 70.8652 19.9824C70.9043 20.0801 70.9482 20.1875 70.9971 20.3047C71.0459 20.4219 71.0898 20.5098 71.1289 20.5684C71.2363 20.7051 71.3633 20.793 71.5098 20.832C71.5879 20.8516 71.6709 20.876 71.7588 20.9053C71.8467 20.9248 71.9395 20.9492 72.0371 20.9785C72.252 21.0957 72.3984 21.1445 72.4766 21.125C72.5742 21.1055 72.6328 21.0957 72.6523 21.0957C72.916 21.0469 73.1406 20.9395 73.3262 20.7734C73.4922 20.6172 73.6875 20.4805 73.9121 20.3633C73.9902 20.2461 74.0684 20.124 74.1465 19.9971C74.2344 19.8701 74.3271 19.7432 74.4248 19.6162C74.5225 19.4795 74.6104 19.3477 74.6885 19.2207C74.7764 19.084 74.8594 18.9473 74.9375 18.8105C74.9863 18.752 75.0352 18.6641 75.084 18.5469C75.1035 18.498 75.123 18.4541 75.1426 18.415C75.1621 18.3662 75.1816 18.3223 75.2012 18.2832C75.3379 18.1172 75.4014 18.0293 75.3916 18.0195C75.3818 18.0098 75.3867 17.9805 75.4062 17.9316C75.5332 17.6387 75.5918 17.4141 75.582 17.2578C75.5723 17.1016 75.5723 16.9453 75.582 16.7891C75.5332 16.6816 75.4893 16.5693 75.4502 16.4521C75.4111 16.335 75.3721 16.2129 75.333 16.0859C75.2549 15.8223 75.1523 15.5977 75.0254 15.4121ZM90.084 20.4805C90.2207 20.4805 90.3184 20.4902 90.377 20.5098C90.4355 20.5293 90.4844 20.5391 90.5234 20.5391C90.7188 20.5391 90.9678 20.4023 91.2705 20.1289C91.583 19.8457 91.832 19.6309 92.0176 19.4844C92.418 19.3965 92.7402 19.1426 92.9844 18.7227C93.2383 18.293 93.5215 17.9219 93.834 17.6094C94.2344 17.209 94.5566 16.8525 94.8008 16.54C95.0547 16.2178 95.2695 16.0566 95.4453 16.0566C95.6016 16.0566 95.7139 16.1299 95.7822 16.2764C95.8701 16.4521 95.9336 16.5742 95.9727 16.6426C95.9336 16.6816 95.9141 16.7402 95.9141 16.8184C95.9141 16.9062 95.8945 16.9746 95.8555 17.0234C95.8164 17.082 95.7578 17.1406 95.6797 17.1992C95.6016 17.2578 95.5332 17.3262 95.4746 17.4043L95.1816 17.7559C94.9277 18.0098 94.6885 18.332 94.4639 18.7227C94.2393 19.1133 94.0146 19.4844 93.79 19.8359C93.5752 20.1777 93.3457 20.4219 93.1016 20.5684C92.584 20.9004 92.1689 21.252 91.8564 21.623C91.5537 21.9844 91.2168 22.2773 90.8457 22.502C90.8066 22.502 90.7822 22.4971 90.7725 22.4873C90.7627 22.4775 90.748 22.4727 90.7285 22.4727C90.6406 22.4727 90.5771 22.4922 90.5381 22.5312C90.499 22.5703 90.4453 22.5898 90.377 22.5898C90.0156 22.4531 89.7275 22.3018 89.5127 22.1357C89.2979 21.96 89.0195 21.584 88.6777 21.0078C88.5898 20.8613 88.5117 20.7002 88.4434 20.5244C88.375 20.3291 88.2969 20.1582 88.209 20.0117L87.8135 19.2939C87.7061 19.0986 87.6523 18.7715 87.6523 18.3125C87.6523 18.1172 87.6719 17.8242 87.7109 17.4336C87.75 17.043 87.7891 16.7305 87.8281 16.4961C87.5254 16.7988 87.2471 17.1748 86.9932 17.624C86.8662 17.8389 86.7441 18.0488 86.627 18.2539C86.5098 18.459 86.3926 18.6543 86.2754 18.8398C85.9629 19.3184 85.626 19.792 85.2646 20.2607C84.9131 20.71 84.7324 21.0566 84.7227 21.3008C84.6055 21.418 84.4785 21.5889 84.3418 21.8135C84.2051 22.0381 84.0977 22.2334 84.0195 22.3994C83.9512 22.5557 83.9512 22.5996 84.0195 22.5312C83.7461 22.9805 83.3506 23.2979 82.833 23.4834C82.3154 23.6689 81.832 23.7617 81.3828 23.7617C81.2949 23.752 81.207 23.7422 81.1191 23.7324C81.0312 23.7227 80.9434 23.7129 80.8555 23.7031C80.6895 23.6934 80.5234 23.625 80.3574 23.498L79.918 23.1758C79.6055 23.0195 79.3906 22.7754 79.2734 22.4434C79.1562 22.1113 79.0977 21.75 79.0977 21.3594C79.3418 20.7441 79.4834 20.1924 79.5225 19.7041C79.5615 19.2256 79.6738 18.752 79.8594 18.2832C80.1328 17.5605 80.5186 16.916 81.0166 16.3496C81.5146 15.7832 82.0371 15.2656 82.584 14.7969C83.0234 14.4258 83.5264 14.0205 84.0928 13.5811C84.6689 13.1318 85.084 12.7559 85.3379 12.4531C85.6504 12.4043 85.9141 12.3115 86.1289 12.1748C86.3535 12.0283 86.5781 11.8916 86.8027 11.7646C87.0273 11.6377 87.291 11.5742 87.5938 11.5742C88.043 11.5742 88.3066 11.6523 88.3848 11.8086C88.4629 11.9648 88.5801 12.1797 88.7363 12.4531C88.8633 12.1309 88.9609 11.8037 89.0293 11.4717C89.0684 11.3057 89.1123 11.1445 89.1611 10.9883C89.2197 10.832 89.2832 10.6855 89.3516 10.5488C89.4688 9.94336 89.6689 9.29883 89.9521 8.61523C90.2354 7.93164 90.5186 7.30176 90.8018 6.72559C91.0361 6.25684 91.2656 5.8125 91.4902 5.39258C91.7246 4.96289 91.8809 4.68945 91.959 4.57227C92.2617 4.10352 92.5889 3.70801 92.9404 3.38574C93.2822 3.06348 93.5801 2.7168 93.834 2.3457C94.0293 2.11133 94.2197 1.84277 94.4053 1.54004C94.6006 1.20801 94.752 1.00781 94.8594 0.939453C95.4062 1.08594 95.6943 1.30078 95.7236 1.58398C95.7529 1.86719 95.7676 2.18945 95.7676 2.55078C95.7676 2.86328 95.7383 3.17578 95.6797 3.48828L94.6836 5.56836C94.4102 6.07617 94.1514 6.59375 93.9072 7.12109C93.6631 7.64844 93.4336 8.18555 93.2188 8.73242C92.8574 9.43555 92.4619 10.0508 92.0322 10.5781C91.8174 10.8418 91.6123 11.1152 91.417 11.3984C91.2314 11.6816 91.0508 11.9746 90.875 12.2773C90.8066 12.4824 90.7041 12.6826 90.5674 12.8779C90.499 12.9756 90.4355 13.0732 90.377 13.1709C90.3184 13.2588 90.2598 13.3516 90.2012 13.4492L89.6738 14.709C89.5566 14.8652 89.498 15.0117 89.498 15.1484C89.5371 15.2363 89.5566 15.3145 89.5566 15.3828V15.5293C89.5566 15.6172 89.5566 15.7051 89.5566 15.793C89.5566 15.8809 89.5518 15.9688 89.542 16.0566C89.5322 16.1445 89.5273 16.2373 89.5273 16.335C89.5273 16.4229 89.5273 16.5156 89.5273 16.6133C89.5273 17.6094 89.5664 18.5859 89.6445 19.543C89.6055 19.6113 89.5859 19.6602 89.5859 19.6895C89.5859 19.8262 89.6592 19.9678 89.8057 20.1143C89.9521 20.251 90.0449 20.373 90.084 20.4805ZM87.2715 13.3613L86.5391 13.8301C86.3926 13.8789 86.1973 14.0205 85.9531 14.2549L85.3379 14.8262L84.7227 15.3828C84.5859 15.6367 84.4004 15.8516 84.166 16.0273C83.9316 16.2031 83.7363 16.3984 83.5801 16.6133C83.3652 16.8867 83.1553 17.209 82.9502 17.5801C82.7451 17.9512 82.6523 18.2637 82.6719 18.5176C82.623 18.6934 82.5693 18.8594 82.5107 19.0156C82.4619 19.1621 82.4082 19.2988 82.3496 19.4258C82.2324 19.6699 82.1738 19.9531 82.1738 20.2754C82.1738 20.5293 82.2568 20.6611 82.4229 20.6709C82.5889 20.6807 82.7109 20.6855 82.7891 20.6855C83.082 20.4902 83.3896 20.207 83.7119 19.8359C84.0439 19.4551 84.3418 19.0645 84.6055 18.6641C84.8789 18.2637 85.0645 17.9316 85.1621 17.668C85.377 17.2969 85.6211 16.9014 85.8945 16.4814C86.168 16.0615 86.4707 15.6855 86.8027 15.3535L87.5645 14.123C87.584 14.0742 87.6035 14.0303 87.623 13.9912C87.6426 13.9424 87.6621 13.8984 87.6816 13.8594C87.7207 13.791 87.7402 13.7031 87.7402 13.5957C87.7402 13.4688 87.7012 13.3516 87.623 13.2441C87.5449 13.2441 87.4766 13.2588 87.418 13.2881C87.3594 13.3174 87.3105 13.3418 87.2715 13.3613ZM93.3359 16.5254C93.4629 16.457 93.6191 16.3105 93.8047 16.0859C93.9902 15.8516 94.1709 15.627 94.3467 15.4121C94.5225 15.1875 94.6543 15.0605 94.7422 15.0312C94.8008 14.9336 94.8545 14.8506 94.9033 14.7822C94.9521 14.7139 95.0254 14.6504 95.123 14.5918C95.2793 14.3086 95.4844 14.0693 95.7383 13.874C96.002 13.6689 96.2461 13.4492 96.4707 13.2148C96.6562 13.1367 96.8418 13.0488 97.0273 12.9512C97.2227 12.8535 97.4131 12.7412 97.5986 12.6143C97.9795 12.3604 98.4043 12.2285 98.873 12.2188C99.0879 12.3164 99.2979 12.3457 99.5029 12.3066C99.6982 12.2676 99.8887 12.3164 100.074 12.4531C100.182 12.6387 100.27 12.751 100.338 12.79C100.406 12.8291 100.465 12.8828 100.514 12.9512C100.592 13.1953 100.65 13.3564 100.689 13.4346C100.738 13.5127 100.768 13.5957 100.777 13.6836C100.787 13.8301 100.797 13.957 100.807 14.0645C100.816 14.1621 100.826 14.2451 100.836 14.3135C100.846 14.4404 100.846 14.5625 100.836 14.6797C100.777 15.1777 100.68 15.6758 100.543 16.1738C100.523 16.2324 100.504 16.291 100.484 16.3496C100.465 16.4082 100.445 16.4717 100.426 16.54C100.387 16.667 100.338 16.7793 100.279 16.877C100.133 17.0625 100.03 17.2139 99.9717 17.3311C99.8838 17.4873 99.8203 17.5898 99.7812 17.6387C99.6641 17.7559 99.5518 17.8633 99.4443 17.9609C99.3467 18.0586 99.2539 18.1465 99.166 18.2246C99.0781 18.2734 98.9902 18.3271 98.9023 18.3857C98.8145 18.4346 98.7266 18.4883 98.6387 18.5469C98.4727 18.6543 98.2773 18.7324 98.0527 18.7812L97.7891 18.9424C97.7012 19.001 97.6035 19.0352 97.4961 19.0449C97.3203 19.1719 97.125 19.2744 96.9102 19.3525C96.8125 19.3916 96.71 19.4307 96.6025 19.4697C96.5049 19.5088 96.4023 19.5527 96.2949 19.6016C96.1484 19.6602 96.0215 19.7285 95.9141 19.8066C95.8066 19.8848 95.6699 19.9629 95.5039 20.041C95.416 20.0703 95.2744 20.1045 95.0791 20.1436C94.8936 20.1729 94.7617 20.207 94.6836 20.2461C94.7812 20.4414 94.8203 20.6855 94.8008 20.9785C94.791 21.252 94.8398 21.4961 94.9473 21.7109C95.2012 21.7695 95.4795 21.8135 95.7822 21.8428C96.085 21.8721 96.373 21.8672 96.6465 21.8281C96.6953 21.8184 96.7441 21.8037 96.793 21.7842C96.8516 21.7646 96.9102 21.7451 96.9688 21.7256C97.0273 21.7061 97.0859 21.6865 97.1445 21.667C97.2031 21.6475 97.2617 21.6328 97.3203 21.623C97.5352 21.584 97.7451 21.5352 97.9502 21.4766C98.1553 21.418 98.3359 21.3398 98.4922 21.2422C99.0586 21.0469 99.6055 20.7832 100.133 20.4512C100.66 20.1191 101.119 19.7578 101.51 19.3672C101.744 19.2109 102.003 18.9961 102.286 18.7227C102.569 18.4492 102.789 18.1953 102.945 17.9609C103.238 17.6484 103.497 17.4043 103.722 17.2285C103.946 17.0527 104.156 16.9746 104.352 16.9941C104.508 16.9941 104.659 17.0869 104.806 17.2725C104.952 17.458 104.938 17.6582 104.762 17.873C104.576 17.9902 104.371 18.166 104.146 18.4004C103.932 18.6348 103.707 18.8008 103.473 18.8984C103.307 19.0059 103.087 19.2207 102.813 19.543C102.55 19.8457 102.33 20.0801 102.154 20.2461C102.115 20.2852 102.071 20.3291 102.022 20.3779C101.974 20.4268 101.915 20.4756 101.847 20.5244C101.72 20.6221 101.617 20.7246 101.539 20.832C101.236 21.0859 100.943 21.3008 100.66 21.4766C100.553 21.4375 100.465 21.457 100.396 21.5352C100.309 21.6426 100.23 21.7207 100.162 21.7695C100.133 21.7891 100.104 21.8086 100.074 21.8281C100.045 21.8477 100.011 21.8672 99.9717 21.8867C99.9326 21.9062 99.8984 21.9258 99.8691 21.9453C99.8398 21.9648 99.8105 21.9844 99.7812 22.0039C99.625 22.1406 99.4541 22.2773 99.2686 22.4141C99.083 22.5508 98.8926 22.668 98.6973 22.7656C98.502 22.8828 98.3066 22.9902 98.1113 23.0879C97.916 23.1953 97.7207 23.2881 97.5254 23.3662C97.3301 23.4443 97.1348 23.5371 96.9395 23.6445C96.7539 23.752 96.5684 23.8691 96.3828 23.9961L96.0605 24.04C96.0117 24.0498 95.9629 24.0547 95.9141 24.0547C95.8652 24.0645 95.8164 24.0742 95.7676 24.084C95.6602 24.123 95.5576 24.1426 95.46 24.1426C95.3623 24.1426 95.2402 24.123 95.0938 24.084C94.4492 23.9082 93.9219 23.5957 93.5117 23.1465C93.4531 23.0879 93.3896 23.0342 93.3213 22.9854C93.2627 22.9268 93.1992 22.873 93.1309 22.8242C92.9746 22.707 92.8672 22.5996 92.8086 22.502C92.7207 22.3555 92.6328 22.126 92.5449 21.8135C92.4473 21.501 92.3643 21.1836 92.2959 20.8613C92.2275 20.5293 92.1934 20.2754 92.1934 20.0996C92.252 19.9824 92.3154 19.7822 92.3838 19.499C92.4521 19.2061 92.5107 18.918 92.5596 18.6348C92.6084 18.3418 92.6328 18.1367 92.6328 18.0195C92.6719 17.9805 92.75 17.8535 92.8672 17.6387C92.9746 17.4141 93.0771 17.1895 93.1748 16.9648C93.2822 16.7305 93.3359 16.584 93.3359 16.5254ZM98.0527 14.6504C97.916 14.8262 97.7793 14.9922 97.6426 15.1484C97.5059 15.3047 97.3496 15.4512 97.1738 15.5879C97.0566 15.8027 96.9199 15.998 96.7637 16.1738C96.6074 16.3496 96.4512 16.5156 96.2949 16.6719C96.2168 16.8281 96.1289 16.9502 96.0312 17.0381C95.9336 17.126 95.8262 17.2188 95.709 17.3164C95.582 17.5312 95.4258 17.7363 95.2402 17.9316C95.0547 18.127 95.0156 18.3516 95.123 18.6055C95.3379 18.6445 95.5527 18.6152 95.7676 18.5176C95.9824 18.4199 96.168 18.332 96.3242 18.2539C96.4023 18.2051 96.4805 18.1611 96.5586 18.1221C96.6465 18.083 96.7295 18.0439 96.8076 18.0049C96.8857 17.9658 96.9639 17.9268 97.042 17.8877C97.1201 17.8486 97.1934 17.8047 97.2617 17.7559L98.0234 16.9941C98.1406 16.8867 98.2578 16.7598 98.375 16.6133C98.4238 16.5449 98.4727 16.4766 98.5215 16.4082C98.5801 16.3301 98.6387 16.252 98.6973 16.1738C98.7461 15.959 98.8242 15.7588 98.9316 15.5732C99.0488 15.3779 99.0977 15.1777 99.0781 14.9727C99.0684 14.8848 99.0342 14.7822 98.9756 14.665C98.917 14.5479 98.8828 14.4551 98.873 14.3867C98.668 14.3867 98.5166 14.4209 98.4189 14.4893C98.3701 14.5283 98.3115 14.5625 98.2432 14.5918C98.1846 14.6113 98.1211 14.6309 98.0527 14.6504ZM112.232 16.0859C112.428 16.1348 112.569 16.2031 112.657 16.291C112.726 16.3594 112.76 16.4375 112.76 16.5254C112.604 16.7402 112.511 16.8818 112.481 16.9502C112.452 17.0186 112.389 17.0723 112.291 17.1113C112.164 17.3066 112.027 17.4922 111.881 17.668C111.744 17.834 111.593 17.9951 111.427 18.1514C111.124 18.4443 110.826 18.7812 110.533 19.1621C110.406 19.2891 110.318 19.3867 110.27 19.4551C110.221 19.5234 110.133 19.6211 110.006 19.748C109.771 19.9141 109.576 20.085 109.42 20.2607C109.332 20.3584 109.239 20.4512 109.142 20.5391C109.054 20.6172 108.961 20.6953 108.863 20.7734C108.814 20.8125 108.766 20.8516 108.717 20.8906C108.678 20.9199 108.634 20.9541 108.585 20.9932C108.546 21.0322 108.502 21.0713 108.453 21.1104C108.404 21.1494 108.355 21.1934 108.307 21.2422C108.229 21.3203 108.141 21.3984 108.043 21.4766C108.004 21.5059 107.96 21.54 107.911 21.5791C107.872 21.6084 107.828 21.6426 107.779 21.6816C107.662 21.8184 107.545 21.9551 107.428 22.0918C107.311 22.2285 107.193 22.375 107.076 22.5312C106.871 22.6289 106.676 22.7461 106.49 22.8828C106.314 23.0098 106.109 23.127 105.875 23.2344C105.777 23.293 105.685 23.3857 105.597 23.5127C105.519 23.6299 105.406 23.7129 105.26 23.7617C105.104 23.8203 104.938 23.835 104.762 23.8057C104.586 23.7764 104.439 23.7324 104.322 23.6738C104.195 23.5859 104.117 23.5371 104.088 23.5273C104.01 23.5078 103.961 23.498 103.941 23.498C103.756 23.2344 103.629 22.9561 103.561 22.6631C103.521 22.5068 103.478 22.3506 103.429 22.1943C103.39 22.0381 103.346 21.877 103.297 21.7109C103.258 21.6133 103.229 21.5107 103.209 21.4033C103.189 21.2959 103.17 21.1738 103.15 21.0371L103.106 20.8027C103.097 20.7637 103.087 20.7246 103.077 20.6855C103.067 20.6367 103.053 20.5879 103.033 20.5391C102.994 20.4414 102.955 20.3389 102.916 20.2314C102.877 20.124 102.848 20.0117 102.828 19.8945C102.789 19.6602 102.774 19.4307 102.784 19.2061C102.794 18.9814 102.818 18.7617 102.857 18.5469C102.975 17.9023 103.146 17.2871 103.37 16.7012C103.595 16.1152 103.824 15.5586 104.059 15.0312C104.107 14.7871 104.161 14.6016 104.22 14.4746C104.278 14.3477 104.342 14.1719 104.41 13.9473C104.498 13.8398 104.566 13.6836 104.615 13.4785C104.635 13.3906 104.654 13.3027 104.674 13.2148C104.703 13.127 104.732 13.0391 104.762 12.9512C104.791 12.873 104.825 12.7949 104.864 12.7168C104.903 12.6289 104.942 12.5361 104.981 12.4385C105.06 12.2627 105.123 12.082 105.172 11.8965C105.24 11.6719 105.294 11.4766 105.333 11.3105C105.353 11.2129 105.377 11.1201 105.406 11.0322C105.445 10.9443 105.484 10.8613 105.523 10.7832C105.602 10.5781 105.675 10.3779 105.743 10.1826C105.821 9.9873 105.895 9.79688 105.963 9.61133C106.031 9.42578 106.1 9.24023 106.168 9.05469C106.246 8.86914 106.324 8.68359 106.402 8.49805C106.422 8.43945 106.441 8.38086 106.461 8.32227C106.48 8.26367 106.5 8.20508 106.52 8.14648C106.559 8.03906 106.617 7.93164 106.695 7.82422C106.744 7.6875 106.793 7.58496 106.842 7.5166C106.92 7.39941 106.979 7.30664 107.018 7.23828C107.018 7.13086 107.052 7.05762 107.12 7.01855C107.169 6.98926 107.223 6.92578 107.281 6.82812C107.389 6.66211 107.462 6.50586 107.501 6.35938C107.54 6.21289 107.613 6.05664 107.721 5.89062L108.072 5.45117C108.092 5.41211 108.111 5.37305 108.131 5.33398C108.15 5.29492 108.17 5.25586 108.189 5.2168C108.238 5.13867 108.297 5.07031 108.365 5.01172C108.59 4.66016 108.824 4.30859 109.068 3.95703L109.859 2.84375C110.035 2.57031 110.23 2.31152 110.445 2.06738C110.66 1.82324 110.885 1.58398 111.119 1.34961C111.197 1.25195 111.29 1.14453 111.397 1.02734C111.505 0.910156 111.617 0.841797 111.734 0.822266C111.92 0.802734 112.115 0.822266 112.32 0.880859C112.379 0.978516 112.433 1.08105 112.481 1.18848C112.53 1.2959 112.574 1.41797 112.613 1.55469C112.652 2.16016 112.633 2.74609 112.555 3.3125C112.477 3.87891 112.389 4.43555 112.291 4.98242C112.271 5.10938 112.267 5.20215 112.276 5.26074C112.286 5.31934 112.281 5.41211 112.262 5.53906C112.223 5.65625 112.174 5.80762 112.115 5.99316C112.057 6.17871 112.008 6.34961 111.969 6.50586C111.969 6.76953 111.91 7.01367 111.793 7.23828C111.676 7.45312 111.598 7.66797 111.559 7.88281C111.5 7.92188 111.466 7.98535 111.456 8.07324C111.446 8.16113 111.412 8.22461 111.354 8.26367C111.305 8.48828 111.241 8.68359 111.163 8.84961C111.075 9.02539 111.002 9.20117 110.943 9.37695C110.797 9.58203 110.65 9.78223 110.504 9.97754C110.357 10.1729 110.206 10.3682 110.05 10.5635C109.894 10.749 109.742 10.9443 109.596 11.1494C109.459 11.3447 109.322 11.5449 109.186 11.75C108.844 12.2676 108.487 12.7559 108.116 13.2148C107.745 13.6738 107.389 14.1621 107.047 14.6797C106.773 14.9238 106.559 15.168 106.402 15.4121C106.236 15.6758 106.012 15.9199 105.729 16.1445C105.68 16.3398 105.631 16.5449 105.582 16.7598C105.543 16.9746 105.499 17.1943 105.45 17.4189C105.411 17.6436 105.367 17.873 105.318 18.1074C105.27 18.3418 105.221 18.5762 105.172 18.8105C105.162 18.9375 105.133 19.0693 105.084 19.2061C105.064 19.2744 105.045 19.3428 105.025 19.4111C105.006 19.4697 104.986 19.5332 104.967 19.6016C104.928 19.7383 104.918 19.9043 104.938 20.0996C104.947 20.2754 104.918 20.4414 104.85 20.5977C104.879 20.6758 104.903 20.7881 104.923 20.9346C104.933 21.0615 104.967 21.1738 105.025 21.2715C105.133 21.4473 105.25 21.5352 105.377 21.5352C105.523 21.457 105.602 21.4229 105.611 21.4326C105.621 21.4424 105.65 21.4375 105.699 21.418C105.797 21.3594 105.895 21.2812 105.992 21.1836C106.09 21.0859 106.178 20.998 106.256 20.9199C106.363 20.8711 106.437 20.8271 106.476 20.7881C106.505 20.7588 106.559 20.7148 106.637 20.6562C106.695 20.6172 106.749 20.5879 106.798 20.5684C106.847 20.5488 106.891 20.5195 106.93 20.4805C107.213 20.1875 107.477 19.9678 107.721 19.8213C107.975 19.6748 108.18 19.4941 108.336 19.2793L108.863 18.957C108.971 18.8984 109.073 18.8154 109.171 18.708C109.259 18.6006 109.371 18.5176 109.508 18.459C109.566 18.3809 109.605 18.332 109.625 18.3125C109.645 18.293 109.684 18.2441 109.742 18.166C109.859 18.0879 109.977 18.0098 110.094 17.9316C110.211 17.8535 110.323 17.7754 110.431 17.6973C110.538 17.6191 110.65 17.541 110.768 17.4629C110.895 17.3848 111.021 17.3066 111.148 17.2285C111.188 17.1309 111.251 17.0527 111.339 16.9941C111.427 16.9355 111.5 16.877 111.559 16.8184C111.617 16.7598 111.666 16.6963 111.705 16.6279C111.754 16.5498 111.822 16.5059 111.91 16.4961C111.92 16.4082 111.964 16.3398 112.042 16.291C112.12 16.2422 112.184 16.1738 112.232 16.0859ZM110.65 5.1582H110.621C110.445 5.19727 110.323 5.28516 110.255 5.42188C110.187 5.55859 110.123 5.71484 110.064 5.89062C110.025 5.96875 109.986 6.03711 109.947 6.0957C109.918 6.1543 109.894 6.20312 109.874 6.24219C109.835 6.31055 109.82 6.42773 109.83 6.59375C109.527 7.0918 109.239 7.60449 108.966 8.13184C108.692 8.64941 108.429 9.18164 108.175 9.72852C107.931 10.2754 107.682 10.8271 107.428 11.3838C107.174 11.9307 106.92 12.4824 106.666 13.0391C107.066 12.6387 107.433 12.1699 107.765 11.6328C107.931 11.3594 108.102 11.1055 108.277 10.8711C108.463 10.6367 108.648 10.4219 108.834 10.2266C108.971 9.89453 109.112 9.57227 109.259 9.25977C109.415 8.94727 109.576 8.64941 109.742 8.36621C110.064 7.81934 110.318 7.16992 110.504 6.41797C110.426 6.17383 110.436 5.96387 110.533 5.78809C110.631 5.6123 110.67 5.40234 110.65 5.1582ZM113.58 18.5469L113.756 18.6934C113.805 18.7715 113.79 18.8789 113.712 19.0156C113.673 19.084 113.639 19.1475 113.609 19.2061C113.59 19.2646 113.57 19.3184 113.551 19.3672C113.561 19.4062 113.57 19.4453 113.58 19.4844C113.59 19.5137 113.6 19.5381 113.609 19.5576C113.629 19.6162 113.619 19.6797 113.58 19.748C113.717 19.8555 113.805 19.9678 113.844 20.085C113.893 20.2412 113.961 20.373 114.049 20.4805C114.166 20.6074 114.269 20.7051 114.356 20.7734C114.464 20.8418 114.566 20.9297 114.664 21.0371C114.771 20.9785 114.85 20.9492 114.898 20.9492C114.967 20.9492 115.045 20.9297 115.133 20.8906C115.299 20.6758 115.436 20.4023 115.543 20.0703C115.562 19.9922 115.582 19.9043 115.602 19.8066C115.621 19.709 115.631 19.6211 115.631 19.543C115.621 19.2891 115.543 19.0254 115.396 18.752C115.25 18.4688 115.143 18.2051 115.074 17.9609C114.996 17.7949 114.972 17.6191 115.001 17.4336C115.03 17.2285 115.025 17.0527 114.986 16.9062C114.977 16.8086 114.947 16.7305 114.898 16.6719C114.879 16.6426 114.859 16.6133 114.84 16.584C114.82 16.5449 114.801 16.5059 114.781 16.4668C114.742 16.3008 114.728 16.125 114.737 15.9395C114.757 15.7441 114.713 15.5781 114.605 15.4414C114.488 15.5586 114.303 15.7832 114.049 16.1152C113.795 16.4375 113.541 16.7598 113.287 17.082C113.043 17.4043 112.867 17.6191 112.76 17.7266C112.711 17.7949 112.657 17.8633 112.599 17.9316C112.55 17.9902 112.496 18.0439 112.438 18.0928C112.379 18.1416 112.32 18.2002 112.262 18.2686C112.213 18.3271 112.164 18.3906 112.115 18.459C111.803 18.8496 111.568 19.1377 111.412 19.3232C111.266 19.5088 111.119 19.6992 110.973 19.8945C110.826 20.0898 110.592 20.4023 110.27 20.832C110.162 20.9883 109.981 21.2422 109.728 21.5938C109.464 21.9453 109.215 22.2871 108.98 22.6191C108.736 22.9414 108.59 23.1562 108.541 23.2637C108.424 23.459 108.272 23.6299 108.087 23.7764C107.901 23.9229 107.682 23.9961 107.428 23.9961C107.428 23.9863 107.408 23.9082 107.369 23.7617C107.33 23.625 107.296 23.4785 107.267 23.3223C107.228 23.1758 107.203 23.0977 107.193 23.0879C107.252 22.9707 107.296 22.8535 107.325 22.7363C107.354 22.6289 107.438 22.5215 107.574 22.4141C107.613 22.2871 107.726 22.0771 107.911 21.7842C108.097 21.4814 108.312 21.1592 108.556 20.8174C108.8 20.4658 109.029 20.1436 109.244 19.8506C109.449 19.5576 109.586 19.3574 109.654 19.25C109.781 19.123 109.967 18.9033 110.211 18.5908C110.445 18.2783 110.68 17.9658 110.914 17.6533C111.158 17.3311 111.334 17.1016 111.441 16.9648C111.529 16.7012 111.71 16.374 111.983 15.9834C112.267 15.583 112.564 15.1777 112.877 14.7676C113.199 14.3477 113.463 13.9863 113.668 13.6836C113.766 13.5273 113.849 13.3906 113.917 13.2734C113.985 13.1562 114.059 13.0293 114.137 12.8926C114.215 12.8145 114.283 12.7266 114.342 12.6289C114.381 12.4824 114.361 12.3701 114.283 12.292C114.215 12.2139 114.186 12.1113 114.195 11.9844C114.371 11.6523 114.542 11.4424 114.708 11.3545C114.884 11.2568 115.055 11.0957 115.221 10.8711C115.338 10.793 115.431 10.7344 115.499 10.6953C115.597 10.6465 115.689 10.5781 115.777 10.4902C115.914 10.3535 116.114 10.3193 116.378 10.3877C116.651 10.4463 116.812 10.5293 116.861 10.6367C116.871 10.6953 116.871 10.7734 116.861 10.8711C116.852 10.9199 116.842 10.9688 116.832 11.0176C116.822 11.0664 116.812 11.1152 116.803 11.1641C116.783 11.252 116.764 11.335 116.744 11.4131C116.725 11.4912 116.705 11.5693 116.686 11.6475C116.666 11.7158 116.646 11.7939 116.627 11.8818C116.607 11.96 116.588 12.043 116.568 12.1309C116.529 12.3457 116.495 12.5508 116.466 12.7461C116.437 12.9414 116.5 13.127 116.656 13.3027C116.637 13.4004 116.642 13.5176 116.671 13.6543C116.7 13.791 116.734 13.918 116.773 14.0352C116.812 14.6602 116.925 15.2803 117.11 15.8955C117.296 16.5107 117.496 17.0723 117.711 17.5801C117.711 17.6777 117.726 17.7754 117.755 17.873C117.784 17.9707 117.818 18.0684 117.857 18.166C117.916 18.791 117.857 19.4111 117.682 20.0264C117.594 20.3291 117.506 20.6318 117.418 20.9346C117.34 21.2373 117.262 21.5352 117.184 21.8281C117.066 22.0234 116.969 22.248 116.891 22.502C116.822 22.7266 116.725 22.9121 116.598 23.0586C116.5 23.2148 116.412 23.3906 116.334 23.5859C116.256 23.7812 116.1 23.9375 115.865 24.0547C115.738 24.0938 115.606 24.0938 115.47 24.0547C115.343 24.0156 115.221 24.0156 115.104 24.0547C115.016 24.0645 114.928 24.0889 114.84 24.1279C114.771 24.1572 114.693 24.1719 114.605 24.1719C114.352 24.2207 114.142 24.1963 113.976 24.0986C113.829 24.0205 113.629 23.957 113.375 23.9082C113.375 23.8496 113.346 23.8057 113.287 23.7764C113.229 23.7471 113.18 23.7129 113.141 23.6738C113.072 23.3809 112.994 23.1562 112.906 23C112.838 22.8633 112.779 22.7168 112.73 22.5605C112.672 22.3359 112.643 22.126 112.643 21.9307C112.643 21.7158 112.594 21.5059 112.496 21.3008C112.418 21.125 112.384 21.0176 112.394 20.9785C112.403 20.9395 112.408 20.8809 112.408 20.8027C112.408 20.5488 112.394 20.2705 112.364 19.9678C112.335 19.6553 112.457 19.4062 112.73 19.2207C112.838 19.1426 112.911 19.04 112.95 18.9131C112.989 18.8057 113.072 18.6934 113.199 18.5762C113.238 18.5371 113.302 18.5176 113.39 18.5176C113.458 18.5176 113.521 18.5273 113.58 18.5469Z" fill="#731196"/>
</svg>
